G04 #@! TF.GenerationSoftware,KiCad,Pcbnew,5.1.7-a382d34a8~87~ubuntu18.04.1*
G04 #@! TF.CreationDate,2020-10-26T15:35:19+00:00*
G04 #@! TF.ProjectId,ram_adapter_4l,72616d5f-6164-4617-9074-65725f346c2e,rev?*
G04 #@! TF.SameCoordinates,Original*
G04 #@! TF.FileFunction,Copper,L3,Inr*
G04 #@! TF.FilePolarity,Positive*
%FSLAX46Y46*%
G04 Gerber Fmt 4.6, Leading zero omitted, Abs format (unit mm)*
G04 Created by KiCad (PCBNEW 5.1.7-a382d34a8~87~ubuntu18.04.1) date 2020-10-26 15:35:19*
%MOMM*%
%LPD*%
G01*
G04 APERTURE LIST*
G04 #@! TA.AperFunction,ComponentPad*
%ADD10O,1.700000X1.700000*%
G04 #@! TD*
G04 #@! TA.AperFunction,ComponentPad*
%ADD11R,1.700000X1.700000*%
G04 #@! TD*
G04 #@! TA.AperFunction,ComponentPad*
%ADD12C,1.700000*%
G04 #@! TD*
G04 #@! TA.AperFunction,ViaPad*
%ADD13C,0.762000*%
G04 #@! TD*
G04 #@! TA.AperFunction,ViaPad*
%ADD14C,0.660400*%
G04 #@! TD*
G04 #@! TA.AperFunction,Conductor*
%ADD15C,0.406400*%
G04 #@! TD*
G04 #@! TA.AperFunction,Conductor*
%ADD16C,0.254000*%
G04 #@! TD*
G04 #@! TA.AperFunction,Conductor*
%ADD17C,0.100000*%
G04 #@! TD*
G04 APERTURE END LIST*
D10*
X97790000Y-95885000D03*
D11*
X95250000Y-95885000D03*
D10*
X104140000Y-104140000D03*
X104140000Y-101600000D03*
X104140000Y-99060000D03*
X104140000Y-96520000D03*
X104140000Y-93980000D03*
X104140000Y-91440000D03*
X104140000Y-88900000D03*
X104140000Y-86360000D03*
X104140000Y-83820000D03*
X104140000Y-81280000D03*
X104140000Y-78740000D03*
X104140000Y-76200000D03*
X104140000Y-73660000D03*
X104140000Y-71120000D03*
X104140000Y-68580000D03*
D12*
X104140000Y-66040000D03*
D10*
X88900000Y-104140000D03*
X88900000Y-101600000D03*
X88900000Y-99060000D03*
X88900000Y-96520000D03*
X88900000Y-93980000D03*
X88900000Y-91440000D03*
X88900000Y-88900000D03*
X88900000Y-86360000D03*
X88900000Y-83820000D03*
X88900000Y-81280000D03*
X88900000Y-78740000D03*
X88900000Y-76200000D03*
X88900000Y-73660000D03*
X88900000Y-71120000D03*
X88900000Y-68580000D03*
D11*
X88900000Y-66040000D03*
D13*
X93218000Y-81534000D03*
X99822000Y-79756000D03*
X93218000Y-79756000D03*
X99822000Y-81534000D03*
D14*
X93345000Y-71120000D03*
X96520000Y-85090000D03*
X99695000Y-76200000D03*
X99695000Y-85090000D03*
X93345000Y-85090000D03*
D15*
X104140000Y-66040000D02*
X102870000Y-67310000D01*
X102870000Y-67310000D02*
X101600000Y-66040000D01*
X101600000Y-66040000D02*
X104140000Y-66040000D01*
X104140000Y-66040000D02*
X103378000Y-65278000D01*
X103378000Y-65278000D02*
X101600000Y-65278000D01*
X101600000Y-65278000D02*
X101600000Y-66040000D01*
D16*
X103175796Y-65183562D02*
X103253435Y-65261201D01*
X103055020Y-65345905D01*
X102940456Y-65570910D01*
X102871990Y-65813943D01*
X102852253Y-66065663D01*
X102882003Y-66316397D01*
X102960098Y-66556509D01*
X103055020Y-66734095D01*
X103253437Y-66818800D01*
X104013000Y-66059237D01*
X104013000Y-66274763D01*
X103361200Y-66926563D01*
X103445905Y-67124980D01*
X103670910Y-67239544D01*
X103913943Y-67308010D01*
X103950160Y-67310850D01*
X103766113Y-67347459D01*
X103532840Y-67444084D01*
X103322900Y-67584361D01*
X103144361Y-67762900D01*
X103004084Y-67972840D01*
X102907459Y-68206113D01*
X102858200Y-68453754D01*
X102858200Y-68706246D01*
X102907459Y-68953887D01*
X103004084Y-69187160D01*
X103144361Y-69397100D01*
X103322900Y-69575639D01*
X103532840Y-69715916D01*
X103766113Y-69812541D01*
X103954432Y-69850000D01*
X103766113Y-69887459D01*
X103532840Y-69984084D01*
X103322900Y-70124361D01*
X103144361Y-70302900D01*
X103004084Y-70512840D01*
X102907459Y-70746113D01*
X102858200Y-70993754D01*
X102858200Y-71246246D01*
X102907459Y-71493887D01*
X103004084Y-71727160D01*
X103144361Y-71937100D01*
X103322900Y-72115639D01*
X103532840Y-72255916D01*
X103766113Y-72352541D01*
X103954432Y-72390000D01*
X103766113Y-72427459D01*
X103532840Y-72524084D01*
X103322900Y-72664361D01*
X103144361Y-72842900D01*
X103004084Y-73052840D01*
X102907459Y-73286113D01*
X102858200Y-73533754D01*
X102858200Y-73786246D01*
X102907459Y-74033887D01*
X103004084Y-74267160D01*
X103144361Y-74477100D01*
X103322900Y-74655639D01*
X103532840Y-74795916D01*
X103766113Y-74892541D01*
X103954432Y-74930000D01*
X103766113Y-74967459D01*
X103532840Y-75064084D01*
X103322900Y-75204361D01*
X103144361Y-75382900D01*
X103004084Y-75592840D01*
X102907459Y-75826113D01*
X102858200Y-76073754D01*
X102858200Y-76326246D01*
X102907459Y-76573887D01*
X103004084Y-76807160D01*
X103144361Y-77017100D01*
X103322900Y-77195639D01*
X103532840Y-77335916D01*
X103766113Y-77432541D01*
X103954432Y-77470000D01*
X103766113Y-77507459D01*
X103532840Y-77604084D01*
X103322900Y-77744361D01*
X103144361Y-77922900D01*
X103004084Y-78132840D01*
X102907459Y-78366113D01*
X102858200Y-78613754D01*
X102858200Y-78866246D01*
X102907459Y-79113887D01*
X103004084Y-79347160D01*
X103144361Y-79557100D01*
X103322900Y-79735639D01*
X103532840Y-79875916D01*
X103766113Y-79972541D01*
X103954432Y-80010000D01*
X103766113Y-80047459D01*
X103532840Y-80144084D01*
X103322900Y-80284361D01*
X103144361Y-80462900D01*
X103004084Y-80672840D01*
X102907459Y-80906113D01*
X102858200Y-81153754D01*
X102858200Y-81406246D01*
X102907459Y-81653887D01*
X103004084Y-81887160D01*
X103144361Y-82097100D01*
X103322900Y-82275639D01*
X103532840Y-82415916D01*
X103766113Y-82512541D01*
X103954432Y-82550000D01*
X103766113Y-82587459D01*
X103532840Y-82684084D01*
X103322900Y-82824361D01*
X103144361Y-83002900D01*
X103004084Y-83212840D01*
X102907459Y-83446113D01*
X102858200Y-83693754D01*
X102858200Y-83946246D01*
X102907459Y-84193887D01*
X103004084Y-84427160D01*
X103144361Y-84637100D01*
X103322900Y-84815639D01*
X103532840Y-84955916D01*
X103766113Y-85052541D01*
X103954432Y-85090000D01*
X103766113Y-85127459D01*
X103532840Y-85224084D01*
X103322900Y-85364361D01*
X103144361Y-85542900D01*
X103004084Y-85752840D01*
X102907459Y-85986113D01*
X102858200Y-86233754D01*
X102858200Y-86486246D01*
X102907459Y-86733887D01*
X103004084Y-86967160D01*
X103144361Y-87177100D01*
X103322900Y-87355639D01*
X103532840Y-87495916D01*
X103766113Y-87592541D01*
X103954432Y-87630000D01*
X103766113Y-87667459D01*
X103532840Y-87764084D01*
X103322900Y-87904361D01*
X103144361Y-88082900D01*
X103004084Y-88292840D01*
X102907459Y-88526113D01*
X102858200Y-88773754D01*
X102858200Y-89026246D01*
X102907459Y-89273887D01*
X103004084Y-89507160D01*
X103144361Y-89717100D01*
X103322900Y-89895639D01*
X103532840Y-90035916D01*
X103766113Y-90132541D01*
X103954432Y-90170000D01*
X103766113Y-90207459D01*
X103532840Y-90304084D01*
X103322900Y-90444361D01*
X103144361Y-90622900D01*
X103004084Y-90832840D01*
X102907459Y-91066113D01*
X102858200Y-91313754D01*
X102858200Y-91566246D01*
X102907459Y-91813887D01*
X103004084Y-92047160D01*
X103144361Y-92257100D01*
X103322900Y-92435639D01*
X103532840Y-92575916D01*
X103766113Y-92672541D01*
X103954432Y-92710000D01*
X103766113Y-92747459D01*
X103532840Y-92844084D01*
X103322900Y-92984361D01*
X103144361Y-93162900D01*
X103004084Y-93372840D01*
X102907459Y-93606113D01*
X102858200Y-93853754D01*
X102858200Y-94106246D01*
X102907459Y-94353887D01*
X103004084Y-94587160D01*
X103144361Y-94797100D01*
X103322900Y-94975639D01*
X103532840Y-95115916D01*
X103766113Y-95212541D01*
X103954432Y-95250000D01*
X103766113Y-95287459D01*
X103532840Y-95384084D01*
X103322900Y-95524361D01*
X103144361Y-95702900D01*
X103004084Y-95912840D01*
X102907459Y-96146113D01*
X102858200Y-96393754D01*
X102858200Y-96646246D01*
X102907459Y-96893887D01*
X103004084Y-97127160D01*
X103144361Y-97337100D01*
X103322900Y-97515639D01*
X103532840Y-97655916D01*
X103766113Y-97752541D01*
X103954432Y-97790000D01*
X103766113Y-97827459D01*
X103532840Y-97924084D01*
X103322900Y-98064361D01*
X103144361Y-98242900D01*
X103004084Y-98452840D01*
X102907459Y-98686113D01*
X102858200Y-98933754D01*
X102858200Y-99186246D01*
X102907459Y-99433887D01*
X103004084Y-99667160D01*
X103144361Y-99877100D01*
X103322900Y-100055639D01*
X103532840Y-100195916D01*
X103766113Y-100292541D01*
X103954432Y-100330000D01*
X103766113Y-100367459D01*
X103532840Y-100464084D01*
X103322900Y-100604361D01*
X103144361Y-100782900D01*
X103004084Y-100992840D01*
X102907459Y-101226113D01*
X102858200Y-101473754D01*
X102858200Y-101726246D01*
X102907459Y-101973887D01*
X103004084Y-102207160D01*
X103144361Y-102417100D01*
X103322900Y-102595639D01*
X103532840Y-102735916D01*
X103766113Y-102832541D01*
X103954432Y-102870000D01*
X103766113Y-102907459D01*
X103532840Y-103004084D01*
X103322900Y-103144361D01*
X103144361Y-103322900D01*
X103004084Y-103532840D01*
X102907459Y-103766113D01*
X102858200Y-104013754D01*
X102858200Y-104266246D01*
X102907459Y-104513887D01*
X103004084Y-104747160D01*
X103144361Y-104957100D01*
X103216261Y-105029000D01*
X89823739Y-105029000D01*
X89895639Y-104957100D01*
X90035916Y-104747160D01*
X90132541Y-104513887D01*
X90181800Y-104266246D01*
X90181800Y-104013754D01*
X90132541Y-103766113D01*
X90035916Y-103532840D01*
X89895639Y-103322900D01*
X89717100Y-103144361D01*
X89507160Y-103004084D01*
X89273887Y-102907459D01*
X89085568Y-102870000D01*
X89273887Y-102832541D01*
X89507160Y-102735916D01*
X89717100Y-102595639D01*
X89895639Y-102417100D01*
X90035916Y-102207160D01*
X90132541Y-101973887D01*
X90181800Y-101726246D01*
X90181800Y-101473754D01*
X90132541Y-101226113D01*
X90035916Y-100992840D01*
X89895639Y-100782900D01*
X89717100Y-100604361D01*
X89507160Y-100464084D01*
X89273887Y-100367459D01*
X89085568Y-100330000D01*
X89273887Y-100292541D01*
X89507160Y-100195916D01*
X89717100Y-100055639D01*
X89895639Y-99877100D01*
X90035916Y-99667160D01*
X90132541Y-99433887D01*
X90181800Y-99186246D01*
X90181800Y-98933754D01*
X90132541Y-98686113D01*
X90035916Y-98452840D01*
X89895639Y-98242900D01*
X89717100Y-98064361D01*
X89507160Y-97924084D01*
X89273887Y-97827459D01*
X89085568Y-97790000D01*
X89273887Y-97752541D01*
X89507160Y-97655916D01*
X89717100Y-97515639D01*
X89895639Y-97337100D01*
X90035916Y-97127160D01*
X90132541Y-96893887D01*
X90181800Y-96646246D01*
X90181800Y-96393754D01*
X90132541Y-96146113D01*
X90035916Y-95912840D01*
X89895639Y-95702900D01*
X89717100Y-95524361D01*
X89507160Y-95384084D01*
X89273887Y-95287459D01*
X89085568Y-95250000D01*
X89273887Y-95212541D01*
X89507160Y-95115916D01*
X89628259Y-95035000D01*
X93966111Y-95035000D01*
X93966111Y-96735000D01*
X93974448Y-96819648D01*
X93999139Y-96901042D01*
X94039234Y-96976056D01*
X94093194Y-97041806D01*
X94158944Y-97095766D01*
X94233958Y-97135861D01*
X94315352Y-97160552D01*
X94400000Y-97168889D01*
X96100000Y-97168889D01*
X96184648Y-97160552D01*
X96266042Y-97135861D01*
X96341056Y-97095766D01*
X96406806Y-97041806D01*
X96460766Y-96976056D01*
X96500861Y-96901042D01*
X96525552Y-96819648D01*
X96533889Y-96735000D01*
X96533889Y-96140393D01*
X96557459Y-96258887D01*
X96654084Y-96492160D01*
X96794361Y-96702100D01*
X96972900Y-96880639D01*
X97182840Y-97020916D01*
X97416113Y-97117541D01*
X97663754Y-97166800D01*
X97916246Y-97166800D01*
X98163887Y-97117541D01*
X98397160Y-97020916D01*
X98607100Y-96880639D01*
X98785639Y-96702100D01*
X98925916Y-96492160D01*
X99022541Y-96258887D01*
X99071800Y-96011246D01*
X99071800Y-95758754D01*
X99022541Y-95511113D01*
X98925916Y-95277840D01*
X98785639Y-95067900D01*
X98607100Y-94889361D01*
X98397160Y-94749084D01*
X98163887Y-94652459D01*
X97916246Y-94603200D01*
X97663754Y-94603200D01*
X97416113Y-94652459D01*
X97182840Y-94749084D01*
X96972900Y-94889361D01*
X96794361Y-95067900D01*
X96654084Y-95277840D01*
X96557459Y-95511113D01*
X96533889Y-95629607D01*
X96533889Y-95035000D01*
X96525552Y-94950352D01*
X96500861Y-94868958D01*
X96460766Y-94793944D01*
X96406806Y-94728194D01*
X96341056Y-94674234D01*
X96266042Y-94634139D01*
X96184648Y-94609448D01*
X96100000Y-94601111D01*
X94400000Y-94601111D01*
X94315352Y-94609448D01*
X94233958Y-94634139D01*
X94158944Y-94674234D01*
X94093194Y-94728194D01*
X94039234Y-94793944D01*
X93999139Y-94868958D01*
X93974448Y-94950352D01*
X93966111Y-95035000D01*
X89628259Y-95035000D01*
X89717100Y-94975639D01*
X89895639Y-94797100D01*
X90035916Y-94587160D01*
X90132541Y-94353887D01*
X90181800Y-94106246D01*
X90181800Y-93853754D01*
X90132541Y-93606113D01*
X90035916Y-93372840D01*
X89895639Y-93162900D01*
X89717100Y-92984361D01*
X89507160Y-92844084D01*
X89273887Y-92747459D01*
X89085568Y-92710000D01*
X89273887Y-92672541D01*
X89507160Y-92575916D01*
X89717100Y-92435639D01*
X89895639Y-92257100D01*
X90035916Y-92047160D01*
X90132541Y-91813887D01*
X90181800Y-91566246D01*
X90181800Y-91313754D01*
X90132541Y-91066113D01*
X90035916Y-90832840D01*
X89895639Y-90622900D01*
X89717100Y-90444361D01*
X89507160Y-90304084D01*
X89273887Y-90207459D01*
X89085568Y-90170000D01*
X89273887Y-90132541D01*
X89507160Y-90035916D01*
X89717100Y-89895639D01*
X89895639Y-89717100D01*
X90035916Y-89507160D01*
X90132541Y-89273887D01*
X90181800Y-89026246D01*
X90181800Y-88773754D01*
X90132541Y-88526113D01*
X90035916Y-88292840D01*
X89895639Y-88082900D01*
X89717100Y-87904361D01*
X89507160Y-87764084D01*
X89273887Y-87667459D01*
X89085568Y-87630000D01*
X89273887Y-87592541D01*
X89507160Y-87495916D01*
X89717100Y-87355639D01*
X89895639Y-87177100D01*
X90035916Y-86967160D01*
X90132541Y-86733887D01*
X90181800Y-86486246D01*
X90181800Y-86233754D01*
X90132541Y-85986113D01*
X90035916Y-85752840D01*
X89895639Y-85542900D01*
X89717100Y-85364361D01*
X89507160Y-85224084D01*
X89273887Y-85127459D01*
X89085568Y-85090000D01*
X89273887Y-85052541D01*
X89364639Y-85014950D01*
X92583000Y-85014950D01*
X92583000Y-85165050D01*
X92612283Y-85312267D01*
X92669724Y-85450942D01*
X92753116Y-85575747D01*
X92859253Y-85681884D01*
X92984058Y-85765276D01*
X93122733Y-85822717D01*
X93269950Y-85852000D01*
X93420050Y-85852000D01*
X93567267Y-85822717D01*
X93705942Y-85765276D01*
X93830747Y-85681884D01*
X93936884Y-85575747D01*
X94020276Y-85450942D01*
X94077717Y-85312267D01*
X94107000Y-85165050D01*
X94107000Y-85014950D01*
X95758000Y-85014950D01*
X95758000Y-85165050D01*
X95787283Y-85312267D01*
X95844724Y-85450942D01*
X95928116Y-85575747D01*
X96034253Y-85681884D01*
X96159058Y-85765276D01*
X96297733Y-85822717D01*
X96444950Y-85852000D01*
X96595050Y-85852000D01*
X96742267Y-85822717D01*
X96880942Y-85765276D01*
X97005747Y-85681884D01*
X97111884Y-85575747D01*
X97195276Y-85450942D01*
X97252717Y-85312267D01*
X97282000Y-85165050D01*
X97282000Y-85014950D01*
X98933000Y-85014950D01*
X98933000Y-85165050D01*
X98962283Y-85312267D01*
X99019724Y-85450942D01*
X99103116Y-85575747D01*
X99209253Y-85681884D01*
X99334058Y-85765276D01*
X99472733Y-85822717D01*
X99619950Y-85852000D01*
X99770050Y-85852000D01*
X99917267Y-85822717D01*
X100055942Y-85765276D01*
X100180747Y-85681884D01*
X100286884Y-85575747D01*
X100370276Y-85450942D01*
X100427717Y-85312267D01*
X100457000Y-85165050D01*
X100457000Y-85014950D01*
X100427717Y-84867733D01*
X100370276Y-84729058D01*
X100286884Y-84604253D01*
X100180747Y-84498116D01*
X100055942Y-84414724D01*
X99917267Y-84357283D01*
X99770050Y-84328000D01*
X99619950Y-84328000D01*
X99472733Y-84357283D01*
X99334058Y-84414724D01*
X99209253Y-84498116D01*
X99103116Y-84604253D01*
X99019724Y-84729058D01*
X98962283Y-84867733D01*
X98933000Y-85014950D01*
X97282000Y-85014950D01*
X97252717Y-84867733D01*
X97195276Y-84729058D01*
X97111884Y-84604253D01*
X97005747Y-84498116D01*
X96880942Y-84414724D01*
X96742267Y-84357283D01*
X96595050Y-84328000D01*
X96444950Y-84328000D01*
X96297733Y-84357283D01*
X96159058Y-84414724D01*
X96034253Y-84498116D01*
X95928116Y-84604253D01*
X95844724Y-84729058D01*
X95787283Y-84867733D01*
X95758000Y-85014950D01*
X94107000Y-85014950D01*
X94077717Y-84867733D01*
X94020276Y-84729058D01*
X93936884Y-84604253D01*
X93830747Y-84498116D01*
X93705942Y-84414724D01*
X93567267Y-84357283D01*
X93420050Y-84328000D01*
X93269950Y-84328000D01*
X93122733Y-84357283D01*
X92984058Y-84414724D01*
X92859253Y-84498116D01*
X92753116Y-84604253D01*
X92669724Y-84729058D01*
X92612283Y-84867733D01*
X92583000Y-85014950D01*
X89364639Y-85014950D01*
X89507160Y-84955916D01*
X89717100Y-84815639D01*
X89895639Y-84637100D01*
X90035916Y-84427160D01*
X90132541Y-84193887D01*
X90181800Y-83946246D01*
X90181800Y-83693754D01*
X90132541Y-83446113D01*
X90035916Y-83212840D01*
X89895639Y-83002900D01*
X89717100Y-82824361D01*
X89507160Y-82684084D01*
X89273887Y-82587459D01*
X89085568Y-82550000D01*
X89273887Y-82512541D01*
X89507160Y-82415916D01*
X89717100Y-82275639D01*
X89895639Y-82097100D01*
X90035916Y-81887160D01*
X90132541Y-81653887D01*
X90172311Y-81453946D01*
X92405200Y-81453946D01*
X92405200Y-81614054D01*
X92436435Y-81771085D01*
X92497706Y-81919005D01*
X92586657Y-82052130D01*
X92699870Y-82165343D01*
X92832995Y-82254294D01*
X92980915Y-82315565D01*
X93137946Y-82346800D01*
X93298054Y-82346800D01*
X93455085Y-82315565D01*
X93603005Y-82254294D01*
X93736130Y-82165343D01*
X93849343Y-82052130D01*
X93938294Y-81919005D01*
X93999565Y-81771085D01*
X94030800Y-81614054D01*
X94030800Y-81453946D01*
X93999565Y-81296915D01*
X93938294Y-81148995D01*
X93849343Y-81015870D01*
X93736130Y-80902657D01*
X93603005Y-80813706D01*
X93455085Y-80752435D01*
X93298054Y-80721200D01*
X93137946Y-80721200D01*
X92980915Y-80752435D01*
X92832995Y-80813706D01*
X92699870Y-80902657D01*
X92586657Y-81015870D01*
X92497706Y-81148995D01*
X92436435Y-81296915D01*
X92405200Y-81453946D01*
X90172311Y-81453946D01*
X90181800Y-81406246D01*
X90181800Y-81153754D01*
X90132541Y-80906113D01*
X90035916Y-80672840D01*
X89895639Y-80462900D01*
X89717100Y-80284361D01*
X89507160Y-80144084D01*
X89273887Y-80047459D01*
X89085568Y-80010000D01*
X89273887Y-79972541D01*
X89507160Y-79875916D01*
X89717100Y-79735639D01*
X89776793Y-79675946D01*
X99009200Y-79675946D01*
X99009200Y-79836054D01*
X99040435Y-79993085D01*
X99101706Y-80141005D01*
X99190657Y-80274130D01*
X99303870Y-80387343D01*
X99436995Y-80476294D01*
X99584915Y-80537565D01*
X99741946Y-80568800D01*
X99902054Y-80568800D01*
X100059085Y-80537565D01*
X100207005Y-80476294D01*
X100340130Y-80387343D01*
X100453343Y-80274130D01*
X100542294Y-80141005D01*
X100603565Y-79993085D01*
X100634800Y-79836054D01*
X100634800Y-79675946D01*
X100603565Y-79518915D01*
X100542294Y-79370995D01*
X100453343Y-79237870D01*
X100340130Y-79124657D01*
X100207005Y-79035706D01*
X100059085Y-78974435D01*
X99902054Y-78943200D01*
X99741946Y-78943200D01*
X99584915Y-78974435D01*
X99436995Y-79035706D01*
X99303870Y-79124657D01*
X99190657Y-79237870D01*
X99101706Y-79370995D01*
X99040435Y-79518915D01*
X99009200Y-79675946D01*
X89776793Y-79675946D01*
X89895639Y-79557100D01*
X90035916Y-79347160D01*
X90132541Y-79113887D01*
X90181800Y-78866246D01*
X90181800Y-78613754D01*
X90132541Y-78366113D01*
X90035916Y-78132840D01*
X89895639Y-77922900D01*
X89717100Y-77744361D01*
X89507160Y-77604084D01*
X89273887Y-77507459D01*
X89085568Y-77470000D01*
X89273887Y-77432541D01*
X89507160Y-77335916D01*
X89717100Y-77195639D01*
X89895639Y-77017100D01*
X90035916Y-76807160D01*
X90132541Y-76573887D01*
X90181800Y-76326246D01*
X90181800Y-76124950D01*
X98933000Y-76124950D01*
X98933000Y-76275050D01*
X98962283Y-76422267D01*
X99019724Y-76560942D01*
X99103116Y-76685747D01*
X99209253Y-76791884D01*
X99334058Y-76875276D01*
X99472733Y-76932717D01*
X99619950Y-76962000D01*
X99770050Y-76962000D01*
X99917267Y-76932717D01*
X100055942Y-76875276D01*
X100180747Y-76791884D01*
X100286884Y-76685747D01*
X100370276Y-76560942D01*
X100427717Y-76422267D01*
X100457000Y-76275050D01*
X100457000Y-76124950D01*
X100427717Y-75977733D01*
X100370276Y-75839058D01*
X100286884Y-75714253D01*
X100180747Y-75608116D01*
X100055942Y-75524724D01*
X99917267Y-75467283D01*
X99770050Y-75438000D01*
X99619950Y-75438000D01*
X99472733Y-75467283D01*
X99334058Y-75524724D01*
X99209253Y-75608116D01*
X99103116Y-75714253D01*
X99019724Y-75839058D01*
X98962283Y-75977733D01*
X98933000Y-76124950D01*
X90181800Y-76124950D01*
X90181800Y-76073754D01*
X90132541Y-75826113D01*
X90035916Y-75592840D01*
X89895639Y-75382900D01*
X89717100Y-75204361D01*
X89507160Y-75064084D01*
X89273887Y-74967459D01*
X89085568Y-74930000D01*
X89273887Y-74892541D01*
X89507160Y-74795916D01*
X89717100Y-74655639D01*
X89895639Y-74477100D01*
X90035916Y-74267160D01*
X90132541Y-74033887D01*
X90181800Y-73786246D01*
X90181800Y-73533754D01*
X90132541Y-73286113D01*
X90035916Y-73052840D01*
X89895639Y-72842900D01*
X89717100Y-72664361D01*
X89507160Y-72524084D01*
X89273887Y-72427459D01*
X89085568Y-72390000D01*
X89273887Y-72352541D01*
X89507160Y-72255916D01*
X89717100Y-72115639D01*
X89895639Y-71937100D01*
X90035916Y-71727160D01*
X90132541Y-71493887D01*
X90181800Y-71246246D01*
X90181800Y-71044950D01*
X92583000Y-71044950D01*
X92583000Y-71195050D01*
X92612283Y-71342267D01*
X92669724Y-71480942D01*
X92753116Y-71605747D01*
X92859253Y-71711884D01*
X92984058Y-71795276D01*
X93122733Y-71852717D01*
X93269950Y-71882000D01*
X93420050Y-71882000D01*
X93567267Y-71852717D01*
X93705942Y-71795276D01*
X93830747Y-71711884D01*
X93936884Y-71605747D01*
X94020276Y-71480942D01*
X94077717Y-71342267D01*
X94107000Y-71195050D01*
X94107000Y-71044950D01*
X94077717Y-70897733D01*
X94020276Y-70759058D01*
X93936884Y-70634253D01*
X93830747Y-70528116D01*
X93705942Y-70444724D01*
X93567267Y-70387283D01*
X93420050Y-70358000D01*
X93269950Y-70358000D01*
X93122733Y-70387283D01*
X92984058Y-70444724D01*
X92859253Y-70528116D01*
X92753116Y-70634253D01*
X92669724Y-70759058D01*
X92612283Y-70897733D01*
X92583000Y-71044950D01*
X90181800Y-71044950D01*
X90181800Y-70993754D01*
X90132541Y-70746113D01*
X90035916Y-70512840D01*
X89895639Y-70302900D01*
X89717100Y-70124361D01*
X89507160Y-69984084D01*
X89273887Y-69887459D01*
X89085568Y-69850000D01*
X89273887Y-69812541D01*
X89507160Y-69715916D01*
X89717100Y-69575639D01*
X89895639Y-69397100D01*
X90035916Y-69187160D01*
X90132541Y-68953887D01*
X90181800Y-68706246D01*
X90181800Y-68453754D01*
X90132541Y-68206113D01*
X90035916Y-67972840D01*
X89895639Y-67762900D01*
X89717100Y-67584361D01*
X89507160Y-67444084D01*
X89273887Y-67347459D01*
X89155393Y-67323889D01*
X89750000Y-67323889D01*
X89834648Y-67315552D01*
X89916042Y-67290861D01*
X89991056Y-67250766D01*
X90056806Y-67196806D01*
X90110766Y-67131056D01*
X90150861Y-67056042D01*
X90175552Y-66974648D01*
X90183889Y-66890000D01*
X90183889Y-65190000D01*
X90180048Y-65151000D01*
X103208358Y-65151000D01*
X103175796Y-65183562D01*
G04 #@! TA.AperFunction,Conductor*
D17*
G36*
X103175796Y-65183562D02*
G01*
X103253435Y-65261201D01*
X103055020Y-65345905D01*
X102940456Y-65570910D01*
X102871990Y-65813943D01*
X102852253Y-66065663D01*
X102882003Y-66316397D01*
X102960098Y-66556509D01*
X103055020Y-66734095D01*
X103253437Y-66818800D01*
X104013000Y-66059237D01*
X104013000Y-66274763D01*
X103361200Y-66926563D01*
X103445905Y-67124980D01*
X103670910Y-67239544D01*
X103913943Y-67308010D01*
X103950160Y-67310850D01*
X103766113Y-67347459D01*
X103532840Y-67444084D01*
X103322900Y-67584361D01*
X103144361Y-67762900D01*
X103004084Y-67972840D01*
X102907459Y-68206113D01*
X102858200Y-68453754D01*
X102858200Y-68706246D01*
X102907459Y-68953887D01*
X103004084Y-69187160D01*
X103144361Y-69397100D01*
X103322900Y-69575639D01*
X103532840Y-69715916D01*
X103766113Y-69812541D01*
X103954432Y-69850000D01*
X103766113Y-69887459D01*
X103532840Y-69984084D01*
X103322900Y-70124361D01*
X103144361Y-70302900D01*
X103004084Y-70512840D01*
X102907459Y-70746113D01*
X102858200Y-70993754D01*
X102858200Y-71246246D01*
X102907459Y-71493887D01*
X103004084Y-71727160D01*
X103144361Y-71937100D01*
X103322900Y-72115639D01*
X103532840Y-72255916D01*
X103766113Y-72352541D01*
X103954432Y-72390000D01*
X103766113Y-72427459D01*
X103532840Y-72524084D01*
X103322900Y-72664361D01*
X103144361Y-72842900D01*
X103004084Y-73052840D01*
X102907459Y-73286113D01*
X102858200Y-73533754D01*
X102858200Y-73786246D01*
X102907459Y-74033887D01*
X103004084Y-74267160D01*
X103144361Y-74477100D01*
X103322900Y-74655639D01*
X103532840Y-74795916D01*
X103766113Y-74892541D01*
X103954432Y-74930000D01*
X103766113Y-74967459D01*
X103532840Y-75064084D01*
X103322900Y-75204361D01*
X103144361Y-75382900D01*
X103004084Y-75592840D01*
X102907459Y-75826113D01*
X102858200Y-76073754D01*
X102858200Y-76326246D01*
X102907459Y-76573887D01*
X103004084Y-76807160D01*
X103144361Y-77017100D01*
X103322900Y-77195639D01*
X103532840Y-77335916D01*
X103766113Y-77432541D01*
X103954432Y-77470000D01*
X103766113Y-77507459D01*
X103532840Y-77604084D01*
X103322900Y-77744361D01*
X103144361Y-77922900D01*
X103004084Y-78132840D01*
X102907459Y-78366113D01*
X102858200Y-78613754D01*
X102858200Y-78866246D01*
X102907459Y-79113887D01*
X103004084Y-79347160D01*
X103144361Y-79557100D01*
X103322900Y-79735639D01*
X103532840Y-79875916D01*
X103766113Y-79972541D01*
X103954432Y-80010000D01*
X103766113Y-80047459D01*
X103532840Y-80144084D01*
X103322900Y-80284361D01*
X103144361Y-80462900D01*
X103004084Y-80672840D01*
X102907459Y-80906113D01*
X102858200Y-81153754D01*
X102858200Y-81406246D01*
X102907459Y-81653887D01*
X103004084Y-81887160D01*
X103144361Y-82097100D01*
X103322900Y-82275639D01*
X103532840Y-82415916D01*
X103766113Y-82512541D01*
X103954432Y-82550000D01*
X103766113Y-82587459D01*
X103532840Y-82684084D01*
X103322900Y-82824361D01*
X103144361Y-83002900D01*
X103004084Y-83212840D01*
X102907459Y-83446113D01*
X102858200Y-83693754D01*
X102858200Y-83946246D01*
X102907459Y-84193887D01*
X103004084Y-84427160D01*
X103144361Y-84637100D01*
X103322900Y-84815639D01*
X103532840Y-84955916D01*
X103766113Y-85052541D01*
X103954432Y-85090000D01*
X103766113Y-85127459D01*
X103532840Y-85224084D01*
X103322900Y-85364361D01*
X103144361Y-85542900D01*
X103004084Y-85752840D01*
X102907459Y-85986113D01*
X102858200Y-86233754D01*
X102858200Y-86486246D01*
X102907459Y-86733887D01*
X103004084Y-86967160D01*
X103144361Y-87177100D01*
X103322900Y-87355639D01*
X103532840Y-87495916D01*
X103766113Y-87592541D01*
X103954432Y-87630000D01*
X103766113Y-87667459D01*
X103532840Y-87764084D01*
X103322900Y-87904361D01*
X103144361Y-88082900D01*
X103004084Y-88292840D01*
X102907459Y-88526113D01*
X102858200Y-88773754D01*
X102858200Y-89026246D01*
X102907459Y-89273887D01*
X103004084Y-89507160D01*
X103144361Y-89717100D01*
X103322900Y-89895639D01*
X103532840Y-90035916D01*
X103766113Y-90132541D01*
X103954432Y-90170000D01*
X103766113Y-90207459D01*
X103532840Y-90304084D01*
X103322900Y-90444361D01*
X103144361Y-90622900D01*
X103004084Y-90832840D01*
X102907459Y-91066113D01*
X102858200Y-91313754D01*
X102858200Y-91566246D01*
X102907459Y-91813887D01*
X103004084Y-92047160D01*
X103144361Y-92257100D01*
X103322900Y-92435639D01*
X103532840Y-92575916D01*
X103766113Y-92672541D01*
X103954432Y-92710000D01*
X103766113Y-92747459D01*
X103532840Y-92844084D01*
X103322900Y-92984361D01*
X103144361Y-93162900D01*
X103004084Y-93372840D01*
X102907459Y-93606113D01*
X102858200Y-93853754D01*
X102858200Y-94106246D01*
X102907459Y-94353887D01*
X103004084Y-94587160D01*
X103144361Y-94797100D01*
X103322900Y-94975639D01*
X103532840Y-95115916D01*
X103766113Y-95212541D01*
X103954432Y-95250000D01*
X103766113Y-95287459D01*
X103532840Y-95384084D01*
X103322900Y-95524361D01*
X103144361Y-95702900D01*
X103004084Y-95912840D01*
X102907459Y-96146113D01*
X102858200Y-96393754D01*
X102858200Y-96646246D01*
X102907459Y-96893887D01*
X103004084Y-97127160D01*
X103144361Y-97337100D01*
X103322900Y-97515639D01*
X103532840Y-97655916D01*
X103766113Y-97752541D01*
X103954432Y-97790000D01*
X103766113Y-97827459D01*
X103532840Y-97924084D01*
X103322900Y-98064361D01*
X103144361Y-98242900D01*
X103004084Y-98452840D01*
X102907459Y-98686113D01*
X102858200Y-98933754D01*
X102858200Y-99186246D01*
X102907459Y-99433887D01*
X103004084Y-99667160D01*
X103144361Y-99877100D01*
X103322900Y-100055639D01*
X103532840Y-100195916D01*
X103766113Y-100292541D01*
X103954432Y-100330000D01*
X103766113Y-100367459D01*
X103532840Y-100464084D01*
X103322900Y-100604361D01*
X103144361Y-100782900D01*
X103004084Y-100992840D01*
X102907459Y-101226113D01*
X102858200Y-101473754D01*
X102858200Y-101726246D01*
X102907459Y-101973887D01*
X103004084Y-102207160D01*
X103144361Y-102417100D01*
X103322900Y-102595639D01*
X103532840Y-102735916D01*
X103766113Y-102832541D01*
X103954432Y-102870000D01*
X103766113Y-102907459D01*
X103532840Y-103004084D01*
X103322900Y-103144361D01*
X103144361Y-103322900D01*
X103004084Y-103532840D01*
X102907459Y-103766113D01*
X102858200Y-104013754D01*
X102858200Y-104266246D01*
X102907459Y-104513887D01*
X103004084Y-104747160D01*
X103144361Y-104957100D01*
X103216261Y-105029000D01*
X89823739Y-105029000D01*
X89895639Y-104957100D01*
X90035916Y-104747160D01*
X90132541Y-104513887D01*
X90181800Y-104266246D01*
X90181800Y-104013754D01*
X90132541Y-103766113D01*
X90035916Y-103532840D01*
X89895639Y-103322900D01*
X89717100Y-103144361D01*
X89507160Y-103004084D01*
X89273887Y-102907459D01*
X89085568Y-102870000D01*
X89273887Y-102832541D01*
X89507160Y-102735916D01*
X89717100Y-102595639D01*
X89895639Y-102417100D01*
X90035916Y-102207160D01*
X90132541Y-101973887D01*
X90181800Y-101726246D01*
X90181800Y-101473754D01*
X90132541Y-101226113D01*
X90035916Y-100992840D01*
X89895639Y-100782900D01*
X89717100Y-100604361D01*
X89507160Y-100464084D01*
X89273887Y-100367459D01*
X89085568Y-100330000D01*
X89273887Y-100292541D01*
X89507160Y-100195916D01*
X89717100Y-100055639D01*
X89895639Y-99877100D01*
X90035916Y-99667160D01*
X90132541Y-99433887D01*
X90181800Y-99186246D01*
X90181800Y-98933754D01*
X90132541Y-98686113D01*
X90035916Y-98452840D01*
X89895639Y-98242900D01*
X89717100Y-98064361D01*
X89507160Y-97924084D01*
X89273887Y-97827459D01*
X89085568Y-97790000D01*
X89273887Y-97752541D01*
X89507160Y-97655916D01*
X89717100Y-97515639D01*
X89895639Y-97337100D01*
X90035916Y-97127160D01*
X90132541Y-96893887D01*
X90181800Y-96646246D01*
X90181800Y-96393754D01*
X90132541Y-96146113D01*
X90035916Y-95912840D01*
X89895639Y-95702900D01*
X89717100Y-95524361D01*
X89507160Y-95384084D01*
X89273887Y-95287459D01*
X89085568Y-95250000D01*
X89273887Y-95212541D01*
X89507160Y-95115916D01*
X89628259Y-95035000D01*
X93966111Y-95035000D01*
X93966111Y-96735000D01*
X93974448Y-96819648D01*
X93999139Y-96901042D01*
X94039234Y-96976056D01*
X94093194Y-97041806D01*
X94158944Y-97095766D01*
X94233958Y-97135861D01*
X94315352Y-97160552D01*
X94400000Y-97168889D01*
X96100000Y-97168889D01*
X96184648Y-97160552D01*
X96266042Y-97135861D01*
X96341056Y-97095766D01*
X96406806Y-97041806D01*
X96460766Y-96976056D01*
X96500861Y-96901042D01*
X96525552Y-96819648D01*
X96533889Y-96735000D01*
X96533889Y-96140393D01*
X96557459Y-96258887D01*
X96654084Y-96492160D01*
X96794361Y-96702100D01*
X96972900Y-96880639D01*
X97182840Y-97020916D01*
X97416113Y-97117541D01*
X97663754Y-97166800D01*
X97916246Y-97166800D01*
X98163887Y-97117541D01*
X98397160Y-97020916D01*
X98607100Y-96880639D01*
X98785639Y-96702100D01*
X98925916Y-96492160D01*
X99022541Y-96258887D01*
X99071800Y-96011246D01*
X99071800Y-95758754D01*
X99022541Y-95511113D01*
X98925916Y-95277840D01*
X98785639Y-95067900D01*
X98607100Y-94889361D01*
X98397160Y-94749084D01*
X98163887Y-94652459D01*
X97916246Y-94603200D01*
X97663754Y-94603200D01*
X97416113Y-94652459D01*
X97182840Y-94749084D01*
X96972900Y-94889361D01*
X96794361Y-95067900D01*
X96654084Y-95277840D01*
X96557459Y-95511113D01*
X96533889Y-95629607D01*
X96533889Y-95035000D01*
X96525552Y-94950352D01*
X96500861Y-94868958D01*
X96460766Y-94793944D01*
X96406806Y-94728194D01*
X96341056Y-94674234D01*
X96266042Y-94634139D01*
X96184648Y-94609448D01*
X96100000Y-94601111D01*
X94400000Y-94601111D01*
X94315352Y-94609448D01*
X94233958Y-94634139D01*
X94158944Y-94674234D01*
X94093194Y-94728194D01*
X94039234Y-94793944D01*
X93999139Y-94868958D01*
X93974448Y-94950352D01*
X93966111Y-95035000D01*
X89628259Y-95035000D01*
X89717100Y-94975639D01*
X89895639Y-94797100D01*
X90035916Y-94587160D01*
X90132541Y-94353887D01*
X90181800Y-94106246D01*
X90181800Y-93853754D01*
X90132541Y-93606113D01*
X90035916Y-93372840D01*
X89895639Y-93162900D01*
X89717100Y-92984361D01*
X89507160Y-92844084D01*
X89273887Y-92747459D01*
X89085568Y-92710000D01*
X89273887Y-92672541D01*
X89507160Y-92575916D01*
X89717100Y-92435639D01*
X89895639Y-92257100D01*
X90035916Y-92047160D01*
X90132541Y-91813887D01*
X90181800Y-91566246D01*
X90181800Y-91313754D01*
X90132541Y-91066113D01*
X90035916Y-90832840D01*
X89895639Y-90622900D01*
X89717100Y-90444361D01*
X89507160Y-90304084D01*
X89273887Y-90207459D01*
X89085568Y-90170000D01*
X89273887Y-90132541D01*
X89507160Y-90035916D01*
X89717100Y-89895639D01*
X89895639Y-89717100D01*
X90035916Y-89507160D01*
X90132541Y-89273887D01*
X90181800Y-89026246D01*
X90181800Y-88773754D01*
X90132541Y-88526113D01*
X90035916Y-88292840D01*
X89895639Y-88082900D01*
X89717100Y-87904361D01*
X89507160Y-87764084D01*
X89273887Y-87667459D01*
X89085568Y-87630000D01*
X89273887Y-87592541D01*
X89507160Y-87495916D01*
X89717100Y-87355639D01*
X89895639Y-87177100D01*
X90035916Y-86967160D01*
X90132541Y-86733887D01*
X90181800Y-86486246D01*
X90181800Y-86233754D01*
X90132541Y-85986113D01*
X90035916Y-85752840D01*
X89895639Y-85542900D01*
X89717100Y-85364361D01*
X89507160Y-85224084D01*
X89273887Y-85127459D01*
X89085568Y-85090000D01*
X89273887Y-85052541D01*
X89364639Y-85014950D01*
X92583000Y-85014950D01*
X92583000Y-85165050D01*
X92612283Y-85312267D01*
X92669724Y-85450942D01*
X92753116Y-85575747D01*
X92859253Y-85681884D01*
X92984058Y-85765276D01*
X93122733Y-85822717D01*
X93269950Y-85852000D01*
X93420050Y-85852000D01*
X93567267Y-85822717D01*
X93705942Y-85765276D01*
X93830747Y-85681884D01*
X93936884Y-85575747D01*
X94020276Y-85450942D01*
X94077717Y-85312267D01*
X94107000Y-85165050D01*
X94107000Y-85014950D01*
X95758000Y-85014950D01*
X95758000Y-85165050D01*
X95787283Y-85312267D01*
X95844724Y-85450942D01*
X95928116Y-85575747D01*
X96034253Y-85681884D01*
X96159058Y-85765276D01*
X96297733Y-85822717D01*
X96444950Y-85852000D01*
X96595050Y-85852000D01*
X96742267Y-85822717D01*
X96880942Y-85765276D01*
X97005747Y-85681884D01*
X97111884Y-85575747D01*
X97195276Y-85450942D01*
X97252717Y-85312267D01*
X97282000Y-85165050D01*
X97282000Y-85014950D01*
X98933000Y-85014950D01*
X98933000Y-85165050D01*
X98962283Y-85312267D01*
X99019724Y-85450942D01*
X99103116Y-85575747D01*
X99209253Y-85681884D01*
X99334058Y-85765276D01*
X99472733Y-85822717D01*
X99619950Y-85852000D01*
X99770050Y-85852000D01*
X99917267Y-85822717D01*
X100055942Y-85765276D01*
X100180747Y-85681884D01*
X100286884Y-85575747D01*
X100370276Y-85450942D01*
X100427717Y-85312267D01*
X100457000Y-85165050D01*
X100457000Y-85014950D01*
X100427717Y-84867733D01*
X100370276Y-84729058D01*
X100286884Y-84604253D01*
X100180747Y-84498116D01*
X100055942Y-84414724D01*
X99917267Y-84357283D01*
X99770050Y-84328000D01*
X99619950Y-84328000D01*
X99472733Y-84357283D01*
X99334058Y-84414724D01*
X99209253Y-84498116D01*
X99103116Y-84604253D01*
X99019724Y-84729058D01*
X98962283Y-84867733D01*
X98933000Y-85014950D01*
X97282000Y-85014950D01*
X97252717Y-84867733D01*
X97195276Y-84729058D01*
X97111884Y-84604253D01*
X97005747Y-84498116D01*
X96880942Y-84414724D01*
X96742267Y-84357283D01*
X96595050Y-84328000D01*
X96444950Y-84328000D01*
X96297733Y-84357283D01*
X96159058Y-84414724D01*
X96034253Y-84498116D01*
X95928116Y-84604253D01*
X95844724Y-84729058D01*
X95787283Y-84867733D01*
X95758000Y-85014950D01*
X94107000Y-85014950D01*
X94077717Y-84867733D01*
X94020276Y-84729058D01*
X93936884Y-84604253D01*
X93830747Y-84498116D01*
X93705942Y-84414724D01*
X93567267Y-84357283D01*
X93420050Y-84328000D01*
X93269950Y-84328000D01*
X93122733Y-84357283D01*
X92984058Y-84414724D01*
X92859253Y-84498116D01*
X92753116Y-84604253D01*
X92669724Y-84729058D01*
X92612283Y-84867733D01*
X92583000Y-85014950D01*
X89364639Y-85014950D01*
X89507160Y-84955916D01*
X89717100Y-84815639D01*
X89895639Y-84637100D01*
X90035916Y-84427160D01*
X90132541Y-84193887D01*
X90181800Y-83946246D01*
X90181800Y-83693754D01*
X90132541Y-83446113D01*
X90035916Y-83212840D01*
X89895639Y-83002900D01*
X89717100Y-82824361D01*
X89507160Y-82684084D01*
X89273887Y-82587459D01*
X89085568Y-82550000D01*
X89273887Y-82512541D01*
X89507160Y-82415916D01*
X89717100Y-82275639D01*
X89895639Y-82097100D01*
X90035916Y-81887160D01*
X90132541Y-81653887D01*
X90172311Y-81453946D01*
X92405200Y-81453946D01*
X92405200Y-81614054D01*
X92436435Y-81771085D01*
X92497706Y-81919005D01*
X92586657Y-82052130D01*
X92699870Y-82165343D01*
X92832995Y-82254294D01*
X92980915Y-82315565D01*
X93137946Y-82346800D01*
X93298054Y-82346800D01*
X93455085Y-82315565D01*
X93603005Y-82254294D01*
X93736130Y-82165343D01*
X93849343Y-82052130D01*
X93938294Y-81919005D01*
X93999565Y-81771085D01*
X94030800Y-81614054D01*
X94030800Y-81453946D01*
X93999565Y-81296915D01*
X93938294Y-81148995D01*
X93849343Y-81015870D01*
X93736130Y-80902657D01*
X93603005Y-80813706D01*
X93455085Y-80752435D01*
X93298054Y-80721200D01*
X93137946Y-80721200D01*
X92980915Y-80752435D01*
X92832995Y-80813706D01*
X92699870Y-80902657D01*
X92586657Y-81015870D01*
X92497706Y-81148995D01*
X92436435Y-81296915D01*
X92405200Y-81453946D01*
X90172311Y-81453946D01*
X90181800Y-81406246D01*
X90181800Y-81153754D01*
X90132541Y-80906113D01*
X90035916Y-80672840D01*
X89895639Y-80462900D01*
X89717100Y-80284361D01*
X89507160Y-80144084D01*
X89273887Y-80047459D01*
X89085568Y-80010000D01*
X89273887Y-79972541D01*
X89507160Y-79875916D01*
X89717100Y-79735639D01*
X89776793Y-79675946D01*
X99009200Y-79675946D01*
X99009200Y-79836054D01*
X99040435Y-79993085D01*
X99101706Y-80141005D01*
X99190657Y-80274130D01*
X99303870Y-80387343D01*
X99436995Y-80476294D01*
X99584915Y-80537565D01*
X99741946Y-80568800D01*
X99902054Y-80568800D01*
X100059085Y-80537565D01*
X100207005Y-80476294D01*
X100340130Y-80387343D01*
X100453343Y-80274130D01*
X100542294Y-80141005D01*
X100603565Y-79993085D01*
X100634800Y-79836054D01*
X100634800Y-79675946D01*
X100603565Y-79518915D01*
X100542294Y-79370995D01*
X100453343Y-79237870D01*
X100340130Y-79124657D01*
X100207005Y-79035706D01*
X100059085Y-78974435D01*
X99902054Y-78943200D01*
X99741946Y-78943200D01*
X99584915Y-78974435D01*
X99436995Y-79035706D01*
X99303870Y-79124657D01*
X99190657Y-79237870D01*
X99101706Y-79370995D01*
X99040435Y-79518915D01*
X99009200Y-79675946D01*
X89776793Y-79675946D01*
X89895639Y-79557100D01*
X90035916Y-79347160D01*
X90132541Y-79113887D01*
X90181800Y-78866246D01*
X90181800Y-78613754D01*
X90132541Y-78366113D01*
X90035916Y-78132840D01*
X89895639Y-77922900D01*
X89717100Y-77744361D01*
X89507160Y-77604084D01*
X89273887Y-77507459D01*
X89085568Y-77470000D01*
X89273887Y-77432541D01*
X89507160Y-77335916D01*
X89717100Y-77195639D01*
X89895639Y-77017100D01*
X90035916Y-76807160D01*
X90132541Y-76573887D01*
X90181800Y-76326246D01*
X90181800Y-76124950D01*
X98933000Y-76124950D01*
X98933000Y-76275050D01*
X98962283Y-76422267D01*
X99019724Y-76560942D01*
X99103116Y-76685747D01*
X99209253Y-76791884D01*
X99334058Y-76875276D01*
X99472733Y-76932717D01*
X99619950Y-76962000D01*
X99770050Y-76962000D01*
X99917267Y-76932717D01*
X100055942Y-76875276D01*
X100180747Y-76791884D01*
X100286884Y-76685747D01*
X100370276Y-76560942D01*
X100427717Y-76422267D01*
X100457000Y-76275050D01*
X100457000Y-76124950D01*
X100427717Y-75977733D01*
X100370276Y-75839058D01*
X100286884Y-75714253D01*
X100180747Y-75608116D01*
X100055942Y-75524724D01*
X99917267Y-75467283D01*
X99770050Y-75438000D01*
X99619950Y-75438000D01*
X99472733Y-75467283D01*
X99334058Y-75524724D01*
X99209253Y-75608116D01*
X99103116Y-75714253D01*
X99019724Y-75839058D01*
X98962283Y-75977733D01*
X98933000Y-76124950D01*
X90181800Y-76124950D01*
X90181800Y-76073754D01*
X90132541Y-75826113D01*
X90035916Y-75592840D01*
X89895639Y-75382900D01*
X89717100Y-75204361D01*
X89507160Y-75064084D01*
X89273887Y-74967459D01*
X89085568Y-74930000D01*
X89273887Y-74892541D01*
X89507160Y-74795916D01*
X89717100Y-74655639D01*
X89895639Y-74477100D01*
X90035916Y-74267160D01*
X90132541Y-74033887D01*
X90181800Y-73786246D01*
X90181800Y-73533754D01*
X90132541Y-73286113D01*
X90035916Y-73052840D01*
X89895639Y-72842900D01*
X89717100Y-72664361D01*
X89507160Y-72524084D01*
X89273887Y-72427459D01*
X89085568Y-72390000D01*
X89273887Y-72352541D01*
X89507160Y-72255916D01*
X89717100Y-72115639D01*
X89895639Y-71937100D01*
X90035916Y-71727160D01*
X90132541Y-71493887D01*
X90181800Y-71246246D01*
X90181800Y-71044950D01*
X92583000Y-71044950D01*
X92583000Y-71195050D01*
X92612283Y-71342267D01*
X92669724Y-71480942D01*
X92753116Y-71605747D01*
X92859253Y-71711884D01*
X92984058Y-71795276D01*
X93122733Y-71852717D01*
X93269950Y-71882000D01*
X93420050Y-71882000D01*
X93567267Y-71852717D01*
X93705942Y-71795276D01*
X93830747Y-71711884D01*
X93936884Y-71605747D01*
X94020276Y-71480942D01*
X94077717Y-71342267D01*
X94107000Y-71195050D01*
X94107000Y-71044950D01*
X94077717Y-70897733D01*
X94020276Y-70759058D01*
X93936884Y-70634253D01*
X93830747Y-70528116D01*
X93705942Y-70444724D01*
X93567267Y-70387283D01*
X93420050Y-70358000D01*
X93269950Y-70358000D01*
X93122733Y-70387283D01*
X92984058Y-70444724D01*
X92859253Y-70528116D01*
X92753116Y-70634253D01*
X92669724Y-70759058D01*
X92612283Y-70897733D01*
X92583000Y-71044950D01*
X90181800Y-71044950D01*
X90181800Y-70993754D01*
X90132541Y-70746113D01*
X90035916Y-70512840D01*
X89895639Y-70302900D01*
X89717100Y-70124361D01*
X89507160Y-69984084D01*
X89273887Y-69887459D01*
X89085568Y-69850000D01*
X89273887Y-69812541D01*
X89507160Y-69715916D01*
X89717100Y-69575639D01*
X89895639Y-69397100D01*
X90035916Y-69187160D01*
X90132541Y-68953887D01*
X90181800Y-68706246D01*
X90181800Y-68453754D01*
X90132541Y-68206113D01*
X90035916Y-67972840D01*
X89895639Y-67762900D01*
X89717100Y-67584361D01*
X89507160Y-67444084D01*
X89273887Y-67347459D01*
X89155393Y-67323889D01*
X89750000Y-67323889D01*
X89834648Y-67315552D01*
X89916042Y-67290861D01*
X89991056Y-67250766D01*
X90056806Y-67196806D01*
X90110766Y-67131056D01*
X90150861Y-67056042D01*
X90175552Y-66974648D01*
X90183889Y-66890000D01*
X90183889Y-65190000D01*
X90180048Y-65151000D01*
X103208358Y-65151000D01*
X103175796Y-65183562D01*
G37*
G04 #@! TD.AperFunction*
D16*
X103361201Y-65153435D02*
X103358766Y-65151000D01*
X103362240Y-65151000D01*
X103361201Y-65153435D01*
G04 #@! TA.AperFunction,Conductor*
D17*
G36*
X103361201Y-65153435D02*
G01*
X103358766Y-65151000D01*
X103362240Y-65151000D01*
X103361201Y-65153435D01*
G37*
G04 #@! TD.AperFunction*
M02*
