G04 #@! TF.GenerationSoftware,KiCad,Pcbnew,5.1.7-a382d34a8~87~ubuntu18.04.1*
G04 #@! TF.CreationDate,2020-10-26T15:35:19+00:00*
G04 #@! TF.ProjectId,ram_adapter_4l,72616d5f-6164-4617-9074-65725f346c2e,rev?*
G04 #@! TF.SameCoordinates,Original*
G04 #@! TF.FileFunction,Legend,Top*
G04 #@! TF.FilePolarity,Positive*
%FSLAX46Y46*%
G04 Gerber Fmt 4.6, Leading zero omitted, Abs format (unit mm)*
G04 Created by KiCad (PCBNEW 5.1.7-a382d34a8~87~ubuntu18.04.1) date 2020-10-26 15:35:19*
%MOMM*%
%LPD*%
G01*
G04 APERTURE LIST*
%ADD10C,0.150000*%
%ADD11C,0.120000*%
G04 APERTURE END LIST*
D10*
X95758095Y-97925000D02*
X95662857Y-97877380D01*
X95520000Y-97877380D01*
X95377142Y-97925000D01*
X95281904Y-98020238D01*
X95234285Y-98115476D01*
X95186666Y-98305952D01*
X95186666Y-98448809D01*
X95234285Y-98639285D01*
X95281904Y-98734523D01*
X95377142Y-98829761D01*
X95520000Y-98877380D01*
X95615238Y-98877380D01*
X95758095Y-98829761D01*
X95805714Y-98782142D01*
X95805714Y-98448809D01*
X95615238Y-98448809D01*
X96234285Y-98877380D02*
X96234285Y-97877380D01*
X96805714Y-98877380D01*
X96805714Y-97877380D01*
X97281904Y-98877380D02*
X97281904Y-97877380D01*
X97520000Y-97877380D01*
X97662857Y-97925000D01*
X97758095Y-98020238D01*
X97805714Y-98115476D01*
X97853333Y-98305952D01*
X97853333Y-98448809D01*
X97805714Y-98639285D01*
X97758095Y-98734523D01*
X97662857Y-98829761D01*
X97520000Y-98877380D01*
X97281904Y-98877380D01*
D11*
X90170000Y-66040000D02*
X90678000Y-65532000D01*
X90170000Y-66040000D02*
X90678000Y-66548000D01*
X90170000Y-66040000D02*
X90424000Y-66040000D01*
X91948000Y-66040000D02*
X90170000Y-66040000D01*
D10*
X92424476Y-66492380D02*
X92424476Y-65492380D01*
X92805428Y-65492380D01*
X92900666Y-65540000D01*
X92948285Y-65587619D01*
X92995904Y-65682857D01*
X92995904Y-65825714D01*
X92948285Y-65920952D01*
X92900666Y-65968571D01*
X92805428Y-66016190D01*
X92424476Y-66016190D01*
X93424476Y-66492380D02*
X93424476Y-65825714D01*
X93424476Y-65492380D02*
X93376857Y-65540000D01*
X93424476Y-65587619D01*
X93472095Y-65540000D01*
X93424476Y-65492380D01*
X93424476Y-65587619D01*
X93900666Y-65825714D02*
X93900666Y-66492380D01*
X93900666Y-65920952D02*
X93948285Y-65873333D01*
X94043523Y-65825714D01*
X94186380Y-65825714D01*
X94281619Y-65873333D01*
X94329238Y-65968571D01*
X94329238Y-66492380D01*
X96091142Y-66492380D02*
X95519714Y-66492380D01*
X95805428Y-66492380D02*
X95805428Y-65492380D01*
X95710190Y-65635238D01*
X95614952Y-65730476D01*
X95519714Y-65778095D01*
D11*
X90170000Y-105029000D02*
X90170000Y-99695000D01*
X102870000Y-105029000D02*
X90170000Y-105029000D01*
X102870000Y-99695000D02*
X102870000Y-105029000D01*
X90170000Y-99695000D02*
X102870000Y-99695000D01*
D10*
X91020000Y-100989761D02*
X91162857Y-101037380D01*
X91400952Y-101037380D01*
X91496190Y-100989761D01*
X91543809Y-100942142D01*
X91591428Y-100846904D01*
X91591428Y-100751666D01*
X91543809Y-100656428D01*
X91496190Y-100608809D01*
X91400952Y-100561190D01*
X91210476Y-100513571D01*
X91115238Y-100465952D01*
X91067619Y-100418333D01*
X91020000Y-100323095D01*
X91020000Y-100227857D01*
X91067619Y-100132619D01*
X91115238Y-100085000D01*
X91210476Y-100037380D01*
X91448571Y-100037380D01*
X91591428Y-100085000D01*
X92210476Y-100037380D02*
X92400952Y-100037380D01*
X92496190Y-100085000D01*
X92591428Y-100180238D01*
X92639047Y-100370714D01*
X92639047Y-100704047D01*
X92591428Y-100894523D01*
X92496190Y-100989761D01*
X92400952Y-101037380D01*
X92210476Y-101037380D01*
X92115238Y-100989761D01*
X92020000Y-100894523D01*
X91972380Y-100704047D01*
X91972380Y-100370714D01*
X92020000Y-100180238D01*
X92115238Y-100085000D01*
X92210476Y-100037380D01*
X93353333Y-100037380D02*
X93353333Y-100751666D01*
X93305714Y-100894523D01*
X93210476Y-100989761D01*
X93067619Y-101037380D01*
X92972380Y-101037380D01*
X93829523Y-100656428D02*
X94591428Y-100656428D01*
X94972380Y-100037380D02*
X95591428Y-100037380D01*
X95258095Y-100418333D01*
X95400952Y-100418333D01*
X95496190Y-100465952D01*
X95543809Y-100513571D01*
X95591428Y-100608809D01*
X95591428Y-100846904D01*
X95543809Y-100942142D01*
X95496190Y-100989761D01*
X95400952Y-101037380D01*
X95115238Y-101037380D01*
X95020000Y-100989761D01*
X94972380Y-100942142D01*
X96448571Y-100037380D02*
X96258095Y-100037380D01*
X96162857Y-100085000D01*
X96115238Y-100132619D01*
X96020000Y-100275476D01*
X95972380Y-100465952D01*
X95972380Y-100846904D01*
X96020000Y-100942142D01*
X96067619Y-100989761D01*
X96162857Y-101037380D01*
X96353333Y-101037380D01*
X96448571Y-100989761D01*
X96496190Y-100942142D01*
X96543809Y-100846904D01*
X96543809Y-100608809D01*
X96496190Y-100513571D01*
X96448571Y-100465952D01*
X96353333Y-100418333D01*
X96162857Y-100418333D01*
X96067619Y-100465952D01*
X96020000Y-100513571D01*
X95972380Y-100608809D01*
X97591428Y-100370714D02*
X97972380Y-100370714D01*
X97734285Y-100037380D02*
X97734285Y-100894523D01*
X97781904Y-100989761D01*
X97877142Y-101037380D01*
X97972380Y-101037380D01*
X98448571Y-101037380D02*
X98353333Y-100989761D01*
X98305714Y-100942142D01*
X98258095Y-100846904D01*
X98258095Y-100561190D01*
X98305714Y-100465952D01*
X98353333Y-100418333D01*
X98448571Y-100370714D01*
X98591428Y-100370714D01*
X98686666Y-100418333D01*
X98734285Y-100465952D01*
X98781904Y-100561190D01*
X98781904Y-100846904D01*
X98734285Y-100942142D01*
X98686666Y-100989761D01*
X98591428Y-101037380D01*
X98448571Y-101037380D01*
X99972380Y-101037380D02*
X99972380Y-100037380D01*
X100210476Y-100037380D01*
X100353333Y-100085000D01*
X100448571Y-100180238D01*
X100496190Y-100275476D01*
X100543809Y-100465952D01*
X100543809Y-100608809D01*
X100496190Y-100799285D01*
X100448571Y-100894523D01*
X100353333Y-100989761D01*
X100210476Y-101037380D01*
X99972380Y-101037380D01*
X100972380Y-101037380D02*
X100972380Y-100037380D01*
X101448571Y-101037380D02*
X101448571Y-100037380D01*
X101829523Y-100037380D01*
X101924761Y-100085000D01*
X101972380Y-100132619D01*
X102020000Y-100227857D01*
X102020000Y-100370714D01*
X101972380Y-100465952D01*
X101924761Y-100513571D01*
X101829523Y-100561190D01*
X101448571Y-100561190D01*
X91543809Y-102639761D02*
X91686666Y-102687380D01*
X91924761Y-102687380D01*
X92020000Y-102639761D01*
X92067619Y-102592142D01*
X92115238Y-102496904D01*
X92115238Y-102401666D01*
X92067619Y-102306428D01*
X92020000Y-102258809D01*
X91924761Y-102211190D01*
X91734285Y-102163571D01*
X91639047Y-102115952D01*
X91591428Y-102068333D01*
X91543809Y-101973095D01*
X91543809Y-101877857D01*
X91591428Y-101782619D01*
X91639047Y-101735000D01*
X91734285Y-101687380D01*
X91972380Y-101687380D01*
X92115238Y-101735000D01*
X93115238Y-102687380D02*
X92781904Y-102211190D01*
X92543809Y-102687380D02*
X92543809Y-101687380D01*
X92924761Y-101687380D01*
X93020000Y-101735000D01*
X93067619Y-101782619D01*
X93115238Y-101877857D01*
X93115238Y-102020714D01*
X93067619Y-102115952D01*
X93020000Y-102163571D01*
X92924761Y-102211190D01*
X92543809Y-102211190D01*
X93496190Y-102401666D02*
X93972380Y-102401666D01*
X93400952Y-102687380D02*
X93734285Y-101687380D01*
X94067619Y-102687380D01*
X94400952Y-102687380D02*
X94400952Y-101687380D01*
X94734285Y-102401666D01*
X95067619Y-101687380D01*
X95067619Y-102687380D01*
X96258095Y-102401666D02*
X96734285Y-102401666D01*
X96162857Y-102687380D02*
X96496190Y-101687380D01*
X96829523Y-102687380D01*
X97591428Y-102687380D02*
X97591428Y-101687380D01*
X97591428Y-102639761D02*
X97496190Y-102687380D01*
X97305714Y-102687380D01*
X97210476Y-102639761D01*
X97162857Y-102592142D01*
X97115238Y-102496904D01*
X97115238Y-102211190D01*
X97162857Y-102115952D01*
X97210476Y-102068333D01*
X97305714Y-102020714D01*
X97496190Y-102020714D01*
X97591428Y-102068333D01*
X98496190Y-102687380D02*
X98496190Y-102163571D01*
X98448571Y-102068333D01*
X98353333Y-102020714D01*
X98162857Y-102020714D01*
X98067619Y-102068333D01*
X98496190Y-102639761D02*
X98400952Y-102687380D01*
X98162857Y-102687380D01*
X98067619Y-102639761D01*
X98020000Y-102544523D01*
X98020000Y-102449285D01*
X98067619Y-102354047D01*
X98162857Y-102306428D01*
X98400952Y-102306428D01*
X98496190Y-102258809D01*
X98972380Y-102020714D02*
X98972380Y-103020714D01*
X98972380Y-102068333D02*
X99067619Y-102020714D01*
X99258095Y-102020714D01*
X99353333Y-102068333D01*
X99400952Y-102115952D01*
X99448571Y-102211190D01*
X99448571Y-102496904D01*
X99400952Y-102592142D01*
X99353333Y-102639761D01*
X99258095Y-102687380D01*
X99067619Y-102687380D01*
X98972380Y-102639761D01*
X99734285Y-102020714D02*
X100115238Y-102020714D01*
X99877142Y-101687380D02*
X99877142Y-102544523D01*
X99924761Y-102639761D01*
X100020000Y-102687380D01*
X100115238Y-102687380D01*
X100829523Y-102639761D02*
X100734285Y-102687380D01*
X100543809Y-102687380D01*
X100448571Y-102639761D01*
X100400952Y-102544523D01*
X100400952Y-102163571D01*
X100448571Y-102068333D01*
X100543809Y-102020714D01*
X100734285Y-102020714D01*
X100829523Y-102068333D01*
X100877142Y-102163571D01*
X100877142Y-102258809D01*
X100400952Y-102354047D01*
X101305714Y-102687380D02*
X101305714Y-102020714D01*
X101305714Y-102211190D02*
X101353333Y-102115952D01*
X101400952Y-102068333D01*
X101496190Y-102020714D01*
X101591428Y-102020714D01*
X90877142Y-104718333D02*
X90829523Y-104670714D01*
X90734285Y-104527857D01*
X90686666Y-104432619D01*
X90639047Y-104289761D01*
X90591428Y-104051666D01*
X90591428Y-103861190D01*
X90639047Y-103623095D01*
X90686666Y-103480238D01*
X90734285Y-103385000D01*
X90829523Y-103242142D01*
X90877142Y-103194523D01*
X91686666Y-104289761D02*
X91591428Y-104337380D01*
X91400952Y-104337380D01*
X91305714Y-104289761D01*
X91258095Y-104242142D01*
X91210476Y-104146904D01*
X91210476Y-103861190D01*
X91258095Y-103765952D01*
X91305714Y-103718333D01*
X91400952Y-103670714D01*
X91591428Y-103670714D01*
X91686666Y-103718333D01*
X92020000Y-104718333D02*
X92067619Y-104670714D01*
X92162857Y-104527857D01*
X92210476Y-104432619D01*
X92258095Y-104289761D01*
X92305714Y-104051666D01*
X92305714Y-103861190D01*
X92258095Y-103623095D01*
X92210476Y-103480238D01*
X92162857Y-103385000D01*
X92067619Y-103242142D01*
X92020000Y-103194523D01*
X93496190Y-103432619D02*
X93543809Y-103385000D01*
X93639047Y-103337380D01*
X93877142Y-103337380D01*
X93972380Y-103385000D01*
X94020000Y-103432619D01*
X94067619Y-103527857D01*
X94067619Y-103623095D01*
X94020000Y-103765952D01*
X93448571Y-104337380D01*
X94067619Y-104337380D01*
X94686666Y-103337380D02*
X94781904Y-103337380D01*
X94877142Y-103385000D01*
X94924761Y-103432619D01*
X94972380Y-103527857D01*
X95020000Y-103718333D01*
X95020000Y-103956428D01*
X94972380Y-104146904D01*
X94924761Y-104242142D01*
X94877142Y-104289761D01*
X94781904Y-104337380D01*
X94686666Y-104337380D01*
X94591428Y-104289761D01*
X94543809Y-104242142D01*
X94496190Y-104146904D01*
X94448571Y-103956428D01*
X94448571Y-103718333D01*
X94496190Y-103527857D01*
X94543809Y-103432619D01*
X94591428Y-103385000D01*
X94686666Y-103337380D01*
X95400952Y-103432619D02*
X95448571Y-103385000D01*
X95543809Y-103337380D01*
X95781904Y-103337380D01*
X95877142Y-103385000D01*
X95924761Y-103432619D01*
X95972380Y-103527857D01*
X95972380Y-103623095D01*
X95924761Y-103765952D01*
X95353333Y-104337380D01*
X95972380Y-104337380D01*
X96591428Y-103337380D02*
X96686666Y-103337380D01*
X96781904Y-103385000D01*
X96829523Y-103432619D01*
X96877142Y-103527857D01*
X96924761Y-103718333D01*
X96924761Y-103956428D01*
X96877142Y-104146904D01*
X96829523Y-104242142D01*
X96781904Y-104289761D01*
X96686666Y-104337380D01*
X96591428Y-104337380D01*
X96496190Y-104289761D01*
X96448571Y-104242142D01*
X96400952Y-104146904D01*
X96353333Y-103956428D01*
X96353333Y-103718333D01*
X96400952Y-103527857D01*
X96448571Y-103432619D01*
X96496190Y-103385000D01*
X96591428Y-103337380D01*
X98115238Y-104337380D02*
X98115238Y-103337380D01*
X98115238Y-103813571D02*
X98686666Y-103813571D01*
X98686666Y-104337380D02*
X98686666Y-103337380D01*
X99305714Y-104337380D02*
X99210476Y-104289761D01*
X99162857Y-104242142D01*
X99115238Y-104146904D01*
X99115238Y-103861190D01*
X99162857Y-103765952D01*
X99210476Y-103718333D01*
X99305714Y-103670714D01*
X99448571Y-103670714D01*
X99543809Y-103718333D01*
X99591428Y-103765952D01*
X99639047Y-103861190D01*
X99639047Y-104146904D01*
X99591428Y-104242142D01*
X99543809Y-104289761D01*
X99448571Y-104337380D01*
X99305714Y-104337380D01*
X100496190Y-103670714D02*
X100496190Y-104480238D01*
X100448571Y-104575476D01*
X100400952Y-104623095D01*
X100305714Y-104670714D01*
X100162857Y-104670714D01*
X100067619Y-104623095D01*
X100496190Y-104289761D02*
X100400952Y-104337380D01*
X100210476Y-104337380D01*
X100115238Y-104289761D01*
X100067619Y-104242142D01*
X100020000Y-104146904D01*
X100020000Y-103861190D01*
X100067619Y-103765952D01*
X100115238Y-103718333D01*
X100210476Y-103670714D01*
X100400952Y-103670714D01*
X100496190Y-103718333D01*
X101115238Y-104337380D02*
X101020000Y-104289761D01*
X100972380Y-104194523D01*
X100972380Y-103337380D01*
X101877142Y-104289761D02*
X101781904Y-104337380D01*
X101591428Y-104337380D01*
X101496190Y-104289761D01*
X101448571Y-104194523D01*
X101448571Y-103813571D01*
X101496190Y-103718333D01*
X101591428Y-103670714D01*
X101781904Y-103670714D01*
X101877142Y-103718333D01*
X101924761Y-103813571D01*
X101924761Y-103908809D01*
X101448571Y-104004047D01*
X102210476Y-103670714D02*
X102591428Y-103670714D01*
X102353333Y-103337380D02*
X102353333Y-104194523D01*
X102400952Y-104289761D01*
X102496190Y-104337380D01*
X102591428Y-104337380D01*
X92067619Y-92924380D02*
X91591428Y-92924380D01*
X91543809Y-93400571D01*
X91591428Y-93352952D01*
X91686666Y-93305333D01*
X91924761Y-93305333D01*
X92020000Y-93352952D01*
X92067619Y-93400571D01*
X92115238Y-93495809D01*
X92115238Y-93733904D01*
X92067619Y-93829142D01*
X92020000Y-93876761D01*
X91924761Y-93924380D01*
X91686666Y-93924380D01*
X91591428Y-93876761D01*
X91543809Y-93829142D01*
X93067619Y-93924380D02*
X92496190Y-93924380D01*
X92781904Y-93924380D02*
X92781904Y-92924380D01*
X92686666Y-93067238D01*
X92591428Y-93162476D01*
X92496190Y-93210095D01*
X93448571Y-93019619D02*
X93496190Y-92972000D01*
X93591428Y-92924380D01*
X93829523Y-92924380D01*
X93924761Y-92972000D01*
X93972380Y-93019619D01*
X94020000Y-93114857D01*
X94020000Y-93210095D01*
X93972380Y-93352952D01*
X93400952Y-93924380D01*
X94020000Y-93924380D01*
X94448571Y-93924380D02*
X94448571Y-92924380D01*
X95020000Y-93924380D02*
X94591428Y-93352952D01*
X95020000Y-92924380D02*
X94448571Y-93495809D01*
X95353333Y-93924380D02*
X95877142Y-93257714D01*
X95353333Y-93257714D02*
X95877142Y-93924380D01*
X96400952Y-93352952D02*
X96305714Y-93305333D01*
X96258095Y-93257714D01*
X96210476Y-93162476D01*
X96210476Y-93114857D01*
X96258095Y-93019619D01*
X96305714Y-92972000D01*
X96400952Y-92924380D01*
X96591428Y-92924380D01*
X96686666Y-92972000D01*
X96734285Y-93019619D01*
X96781904Y-93114857D01*
X96781904Y-93162476D01*
X96734285Y-93257714D01*
X96686666Y-93305333D01*
X96591428Y-93352952D01*
X96400952Y-93352952D01*
X96305714Y-93400571D01*
X96258095Y-93448190D01*
X96210476Y-93543428D01*
X96210476Y-93733904D01*
X96258095Y-93829142D01*
X96305714Y-93876761D01*
X96400952Y-93924380D01*
X96591428Y-93924380D01*
X96686666Y-93876761D01*
X96734285Y-93829142D01*
X96781904Y-93733904D01*
X96781904Y-93543428D01*
X96734285Y-93448190D01*
X96686666Y-93400571D01*
X96591428Y-93352952D01*
X97924761Y-93876761D02*
X98067619Y-93924380D01*
X98305714Y-93924380D01*
X98400952Y-93876761D01*
X98448571Y-93829142D01*
X98496190Y-93733904D01*
X98496190Y-93638666D01*
X98448571Y-93543428D01*
X98400952Y-93495809D01*
X98305714Y-93448190D01*
X98115238Y-93400571D01*
X98020000Y-93352952D01*
X97972380Y-93305333D01*
X97924761Y-93210095D01*
X97924761Y-93114857D01*
X97972380Y-93019619D01*
X98020000Y-92972000D01*
X98115238Y-92924380D01*
X98353333Y-92924380D01*
X98496190Y-92972000D01*
X99496190Y-93924380D02*
X99162857Y-93448190D01*
X98924761Y-93924380D02*
X98924761Y-92924380D01*
X99305714Y-92924380D01*
X99400952Y-92972000D01*
X99448571Y-93019619D01*
X99496190Y-93114857D01*
X99496190Y-93257714D01*
X99448571Y-93352952D01*
X99400952Y-93400571D01*
X99305714Y-93448190D01*
X98924761Y-93448190D01*
X99877142Y-93638666D02*
X100353333Y-93638666D01*
X99781904Y-93924380D02*
X100115238Y-92924380D01*
X100448571Y-93924380D01*
X100781904Y-93924380D02*
X100781904Y-92924380D01*
X101115238Y-93638666D01*
X101448571Y-92924380D01*
X101448571Y-93924380D01*
D11*
X99120000Y-97215000D02*
X99120000Y-94555000D01*
X96520000Y-97215000D02*
X99120000Y-97215000D01*
X96520000Y-94555000D02*
X99120000Y-94555000D01*
X96520000Y-97215000D02*
X96520000Y-94555000D01*
X95250000Y-97215000D02*
X93920000Y-97215000D01*
X93920000Y-97215000D02*
X93920000Y-95885000D01*
X91330000Y-69290000D02*
X90970000Y-69290000D01*
X91330000Y-68790000D02*
X91330000Y-69290000D01*
X96520000Y-68790000D02*
X91330000Y-68790000D01*
X101710000Y-68790000D02*
X101710000Y-69290000D01*
X96520000Y-68790000D02*
X101710000Y-68790000D01*
X91330000Y-92500000D02*
X91330000Y-92000000D01*
X96520000Y-92500000D02*
X91330000Y-92500000D01*
X101710000Y-92500000D02*
X101710000Y-92000000D01*
X96520000Y-92500000D02*
X101710000Y-92500000D01*
D10*
X95758095Y-67397380D02*
X95758095Y-68206904D01*
X95805714Y-68302142D01*
X95853333Y-68349761D01*
X95948571Y-68397380D01*
X96139047Y-68397380D01*
X96234285Y-68349761D01*
X96281904Y-68302142D01*
X96329523Y-68206904D01*
X96329523Y-67397380D01*
X97329523Y-68397380D02*
X96758095Y-68397380D01*
X97043809Y-68397380D02*
X97043809Y-67397380D01*
X96948571Y-67540238D01*
X96853333Y-67635476D01*
X96758095Y-67683095D01*
M02*
