G04 #@! TF.GenerationSoftware,KiCad,Pcbnew,5.1.7-a382d34a8~87~ubuntu18.04.1*
G04 #@! TF.CreationDate,2020-10-26T15:35:19+00:00*
G04 #@! TF.ProjectId,ram_adapter_4l,72616d5f-6164-4617-9074-65725f346c2e,rev?*
G04 #@! TF.SameCoordinates,Original*
G04 #@! TF.FileFunction,Copper,L1,Top*
G04 #@! TF.FilePolarity,Positive*
%FSLAX46Y46*%
G04 Gerber Fmt 4.6, Leading zero omitted, Abs format (unit mm)*
G04 Created by KiCad (PCBNEW 5.1.7-a382d34a8~87~ubuntu18.04.1) date 2020-10-26 15:35:19*
%MOMM*%
%LPD*%
G01*
G04 APERTURE LIST*
G04 #@! TA.AperFunction,ComponentPad*
%ADD10O,1.700000X1.700000*%
G04 #@! TD*
G04 #@! TA.AperFunction,ComponentPad*
%ADD11R,1.700000X1.700000*%
G04 #@! TD*
G04 #@! TA.AperFunction,ComponentPad*
%ADD12C,1.700000*%
G04 #@! TD*
G04 #@! TA.AperFunction,ViaPad*
%ADD13C,0.762000*%
G04 #@! TD*
G04 #@! TA.AperFunction,ViaPad*
%ADD14C,0.660400*%
G04 #@! TD*
G04 #@! TA.AperFunction,Conductor*
%ADD15C,0.406400*%
G04 #@! TD*
G04 #@! TA.AperFunction,Conductor*
%ADD16C,0.203200*%
G04 #@! TD*
G04 APERTURE END LIST*
D10*
X97790000Y-95885000D03*
D11*
X95250000Y-95885000D03*
G04 #@! TA.AperFunction,SMDPad,CuDef*
G36*
G01*
X90770000Y-70000000D02*
X90770000Y-69700000D01*
G75*
G02*
X90920000Y-69550000I150000J0D01*
G01*
X92520000Y-69550000D01*
G75*
G02*
X92670000Y-69700000I0J-150000D01*
G01*
X92670000Y-70000000D01*
G75*
G02*
X92520000Y-70150000I-150000J0D01*
G01*
X90920000Y-70150000D01*
G75*
G02*
X90770000Y-70000000I0J150000D01*
G01*
G37*
G04 #@! TD.AperFunction*
G04 #@! TA.AperFunction,SMDPad,CuDef*
G36*
G01*
X90770000Y-71270000D02*
X90770000Y-70970000D01*
G75*
G02*
X90920000Y-70820000I150000J0D01*
G01*
X92520000Y-70820000D01*
G75*
G02*
X92670000Y-70970000I0J-150000D01*
G01*
X92670000Y-71270000D01*
G75*
G02*
X92520000Y-71420000I-150000J0D01*
G01*
X90920000Y-71420000D01*
G75*
G02*
X90770000Y-71270000I0J150000D01*
G01*
G37*
G04 #@! TD.AperFunction*
G04 #@! TA.AperFunction,SMDPad,CuDef*
G36*
G01*
X90770000Y-72540000D02*
X90770000Y-72240000D01*
G75*
G02*
X90920000Y-72090000I150000J0D01*
G01*
X92520000Y-72090000D01*
G75*
G02*
X92670000Y-72240000I0J-150000D01*
G01*
X92670000Y-72540000D01*
G75*
G02*
X92520000Y-72690000I-150000J0D01*
G01*
X90920000Y-72690000D01*
G75*
G02*
X90770000Y-72540000I0J150000D01*
G01*
G37*
G04 #@! TD.AperFunction*
G04 #@! TA.AperFunction,SMDPad,CuDef*
G36*
G01*
X90770000Y-73810000D02*
X90770000Y-73510000D01*
G75*
G02*
X90920000Y-73360000I150000J0D01*
G01*
X92520000Y-73360000D01*
G75*
G02*
X92670000Y-73510000I0J-150000D01*
G01*
X92670000Y-73810000D01*
G75*
G02*
X92520000Y-73960000I-150000J0D01*
G01*
X90920000Y-73960000D01*
G75*
G02*
X90770000Y-73810000I0J150000D01*
G01*
G37*
G04 #@! TD.AperFunction*
G04 #@! TA.AperFunction,SMDPad,CuDef*
G36*
G01*
X90770000Y-75080000D02*
X90770000Y-74780000D01*
G75*
G02*
X90920000Y-74630000I150000J0D01*
G01*
X92520000Y-74630000D01*
G75*
G02*
X92670000Y-74780000I0J-150000D01*
G01*
X92670000Y-75080000D01*
G75*
G02*
X92520000Y-75230000I-150000J0D01*
G01*
X90920000Y-75230000D01*
G75*
G02*
X90770000Y-75080000I0J150000D01*
G01*
G37*
G04 #@! TD.AperFunction*
G04 #@! TA.AperFunction,SMDPad,CuDef*
G36*
G01*
X90770000Y-76350000D02*
X90770000Y-76050000D01*
G75*
G02*
X90920000Y-75900000I150000J0D01*
G01*
X92520000Y-75900000D01*
G75*
G02*
X92670000Y-76050000I0J-150000D01*
G01*
X92670000Y-76350000D01*
G75*
G02*
X92520000Y-76500000I-150000J0D01*
G01*
X90920000Y-76500000D01*
G75*
G02*
X90770000Y-76350000I0J150000D01*
G01*
G37*
G04 #@! TD.AperFunction*
G04 #@! TA.AperFunction,SMDPad,CuDef*
G36*
G01*
X90770000Y-77620000D02*
X90770000Y-77320000D01*
G75*
G02*
X90920000Y-77170000I150000J0D01*
G01*
X92520000Y-77170000D01*
G75*
G02*
X92670000Y-77320000I0J-150000D01*
G01*
X92670000Y-77620000D01*
G75*
G02*
X92520000Y-77770000I-150000J0D01*
G01*
X90920000Y-77770000D01*
G75*
G02*
X90770000Y-77620000I0J150000D01*
G01*
G37*
G04 #@! TD.AperFunction*
G04 #@! TA.AperFunction,SMDPad,CuDef*
G36*
G01*
X90770000Y-78890000D02*
X90770000Y-78590000D01*
G75*
G02*
X90920000Y-78440000I150000J0D01*
G01*
X92520000Y-78440000D01*
G75*
G02*
X92670000Y-78590000I0J-150000D01*
G01*
X92670000Y-78890000D01*
G75*
G02*
X92520000Y-79040000I-150000J0D01*
G01*
X90920000Y-79040000D01*
G75*
G02*
X90770000Y-78890000I0J150000D01*
G01*
G37*
G04 #@! TD.AperFunction*
G04 #@! TA.AperFunction,SMDPad,CuDef*
G36*
G01*
X90770000Y-80160000D02*
X90770000Y-79860000D01*
G75*
G02*
X90920000Y-79710000I150000J0D01*
G01*
X92520000Y-79710000D01*
G75*
G02*
X92670000Y-79860000I0J-150000D01*
G01*
X92670000Y-80160000D01*
G75*
G02*
X92520000Y-80310000I-150000J0D01*
G01*
X90920000Y-80310000D01*
G75*
G02*
X90770000Y-80160000I0J150000D01*
G01*
G37*
G04 #@! TD.AperFunction*
G04 #@! TA.AperFunction,SMDPad,CuDef*
G36*
G01*
X90770000Y-81430000D02*
X90770000Y-81130000D01*
G75*
G02*
X90920000Y-80980000I150000J0D01*
G01*
X92520000Y-80980000D01*
G75*
G02*
X92670000Y-81130000I0J-150000D01*
G01*
X92670000Y-81430000D01*
G75*
G02*
X92520000Y-81580000I-150000J0D01*
G01*
X90920000Y-81580000D01*
G75*
G02*
X90770000Y-81430000I0J150000D01*
G01*
G37*
G04 #@! TD.AperFunction*
G04 #@! TA.AperFunction,SMDPad,CuDef*
G36*
G01*
X90770000Y-82700000D02*
X90770000Y-82400000D01*
G75*
G02*
X90920000Y-82250000I150000J0D01*
G01*
X92520000Y-82250000D01*
G75*
G02*
X92670000Y-82400000I0J-150000D01*
G01*
X92670000Y-82700000D01*
G75*
G02*
X92520000Y-82850000I-150000J0D01*
G01*
X90920000Y-82850000D01*
G75*
G02*
X90770000Y-82700000I0J150000D01*
G01*
G37*
G04 #@! TD.AperFunction*
G04 #@! TA.AperFunction,SMDPad,CuDef*
G36*
G01*
X90770000Y-83970000D02*
X90770000Y-83670000D01*
G75*
G02*
X90920000Y-83520000I150000J0D01*
G01*
X92520000Y-83520000D01*
G75*
G02*
X92670000Y-83670000I0J-150000D01*
G01*
X92670000Y-83970000D01*
G75*
G02*
X92520000Y-84120000I-150000J0D01*
G01*
X90920000Y-84120000D01*
G75*
G02*
X90770000Y-83970000I0J150000D01*
G01*
G37*
G04 #@! TD.AperFunction*
G04 #@! TA.AperFunction,SMDPad,CuDef*
G36*
G01*
X90770000Y-85240000D02*
X90770000Y-84940000D01*
G75*
G02*
X90920000Y-84790000I150000J0D01*
G01*
X92520000Y-84790000D01*
G75*
G02*
X92670000Y-84940000I0J-150000D01*
G01*
X92670000Y-85240000D01*
G75*
G02*
X92520000Y-85390000I-150000J0D01*
G01*
X90920000Y-85390000D01*
G75*
G02*
X90770000Y-85240000I0J150000D01*
G01*
G37*
G04 #@! TD.AperFunction*
G04 #@! TA.AperFunction,SMDPad,CuDef*
G36*
G01*
X90770000Y-86510000D02*
X90770000Y-86210000D01*
G75*
G02*
X90920000Y-86060000I150000J0D01*
G01*
X92520000Y-86060000D01*
G75*
G02*
X92670000Y-86210000I0J-150000D01*
G01*
X92670000Y-86510000D01*
G75*
G02*
X92520000Y-86660000I-150000J0D01*
G01*
X90920000Y-86660000D01*
G75*
G02*
X90770000Y-86510000I0J150000D01*
G01*
G37*
G04 #@! TD.AperFunction*
G04 #@! TA.AperFunction,SMDPad,CuDef*
G36*
G01*
X90770000Y-87780000D02*
X90770000Y-87480000D01*
G75*
G02*
X90920000Y-87330000I150000J0D01*
G01*
X92520000Y-87330000D01*
G75*
G02*
X92670000Y-87480000I0J-150000D01*
G01*
X92670000Y-87780000D01*
G75*
G02*
X92520000Y-87930000I-150000J0D01*
G01*
X90920000Y-87930000D01*
G75*
G02*
X90770000Y-87780000I0J150000D01*
G01*
G37*
G04 #@! TD.AperFunction*
G04 #@! TA.AperFunction,SMDPad,CuDef*
G36*
G01*
X90770000Y-89050000D02*
X90770000Y-88750000D01*
G75*
G02*
X90920000Y-88600000I150000J0D01*
G01*
X92520000Y-88600000D01*
G75*
G02*
X92670000Y-88750000I0J-150000D01*
G01*
X92670000Y-89050000D01*
G75*
G02*
X92520000Y-89200000I-150000J0D01*
G01*
X90920000Y-89200000D01*
G75*
G02*
X90770000Y-89050000I0J150000D01*
G01*
G37*
G04 #@! TD.AperFunction*
G04 #@! TA.AperFunction,SMDPad,CuDef*
G36*
G01*
X90770000Y-90320000D02*
X90770000Y-90020000D01*
G75*
G02*
X90920000Y-89870000I150000J0D01*
G01*
X92520000Y-89870000D01*
G75*
G02*
X92670000Y-90020000I0J-150000D01*
G01*
X92670000Y-90320000D01*
G75*
G02*
X92520000Y-90470000I-150000J0D01*
G01*
X90920000Y-90470000D01*
G75*
G02*
X90770000Y-90320000I0J150000D01*
G01*
G37*
G04 #@! TD.AperFunction*
G04 #@! TA.AperFunction,SMDPad,CuDef*
G36*
G01*
X90770000Y-91590000D02*
X90770000Y-91290000D01*
G75*
G02*
X90920000Y-91140000I150000J0D01*
G01*
X92520000Y-91140000D01*
G75*
G02*
X92670000Y-91290000I0J-150000D01*
G01*
X92670000Y-91590000D01*
G75*
G02*
X92520000Y-91740000I-150000J0D01*
G01*
X90920000Y-91740000D01*
G75*
G02*
X90770000Y-91590000I0J150000D01*
G01*
G37*
G04 #@! TD.AperFunction*
G04 #@! TA.AperFunction,SMDPad,CuDef*
G36*
G01*
X100370000Y-91590000D02*
X100370000Y-91290000D01*
G75*
G02*
X100520000Y-91140000I150000J0D01*
G01*
X102120000Y-91140000D01*
G75*
G02*
X102270000Y-91290000I0J-150000D01*
G01*
X102270000Y-91590000D01*
G75*
G02*
X102120000Y-91740000I-150000J0D01*
G01*
X100520000Y-91740000D01*
G75*
G02*
X100370000Y-91590000I0J150000D01*
G01*
G37*
G04 #@! TD.AperFunction*
G04 #@! TA.AperFunction,SMDPad,CuDef*
G36*
G01*
X100370000Y-90320000D02*
X100370000Y-90020000D01*
G75*
G02*
X100520000Y-89870000I150000J0D01*
G01*
X102120000Y-89870000D01*
G75*
G02*
X102270000Y-90020000I0J-150000D01*
G01*
X102270000Y-90320000D01*
G75*
G02*
X102120000Y-90470000I-150000J0D01*
G01*
X100520000Y-90470000D01*
G75*
G02*
X100370000Y-90320000I0J150000D01*
G01*
G37*
G04 #@! TD.AperFunction*
G04 #@! TA.AperFunction,SMDPad,CuDef*
G36*
G01*
X100370000Y-89050000D02*
X100370000Y-88750000D01*
G75*
G02*
X100520000Y-88600000I150000J0D01*
G01*
X102120000Y-88600000D01*
G75*
G02*
X102270000Y-88750000I0J-150000D01*
G01*
X102270000Y-89050000D01*
G75*
G02*
X102120000Y-89200000I-150000J0D01*
G01*
X100520000Y-89200000D01*
G75*
G02*
X100370000Y-89050000I0J150000D01*
G01*
G37*
G04 #@! TD.AperFunction*
G04 #@! TA.AperFunction,SMDPad,CuDef*
G36*
G01*
X100370000Y-87780000D02*
X100370000Y-87480000D01*
G75*
G02*
X100520000Y-87330000I150000J0D01*
G01*
X102120000Y-87330000D01*
G75*
G02*
X102270000Y-87480000I0J-150000D01*
G01*
X102270000Y-87780000D01*
G75*
G02*
X102120000Y-87930000I-150000J0D01*
G01*
X100520000Y-87930000D01*
G75*
G02*
X100370000Y-87780000I0J150000D01*
G01*
G37*
G04 #@! TD.AperFunction*
G04 #@! TA.AperFunction,SMDPad,CuDef*
G36*
G01*
X100370000Y-86510000D02*
X100370000Y-86210000D01*
G75*
G02*
X100520000Y-86060000I150000J0D01*
G01*
X102120000Y-86060000D01*
G75*
G02*
X102270000Y-86210000I0J-150000D01*
G01*
X102270000Y-86510000D01*
G75*
G02*
X102120000Y-86660000I-150000J0D01*
G01*
X100520000Y-86660000D01*
G75*
G02*
X100370000Y-86510000I0J150000D01*
G01*
G37*
G04 #@! TD.AperFunction*
G04 #@! TA.AperFunction,SMDPad,CuDef*
G36*
G01*
X100370000Y-85240000D02*
X100370000Y-84940000D01*
G75*
G02*
X100520000Y-84790000I150000J0D01*
G01*
X102120000Y-84790000D01*
G75*
G02*
X102270000Y-84940000I0J-150000D01*
G01*
X102270000Y-85240000D01*
G75*
G02*
X102120000Y-85390000I-150000J0D01*
G01*
X100520000Y-85390000D01*
G75*
G02*
X100370000Y-85240000I0J150000D01*
G01*
G37*
G04 #@! TD.AperFunction*
G04 #@! TA.AperFunction,SMDPad,CuDef*
G36*
G01*
X100370000Y-83970000D02*
X100370000Y-83670000D01*
G75*
G02*
X100520000Y-83520000I150000J0D01*
G01*
X102120000Y-83520000D01*
G75*
G02*
X102270000Y-83670000I0J-150000D01*
G01*
X102270000Y-83970000D01*
G75*
G02*
X102120000Y-84120000I-150000J0D01*
G01*
X100520000Y-84120000D01*
G75*
G02*
X100370000Y-83970000I0J150000D01*
G01*
G37*
G04 #@! TD.AperFunction*
G04 #@! TA.AperFunction,SMDPad,CuDef*
G36*
G01*
X100370000Y-82700000D02*
X100370000Y-82400000D01*
G75*
G02*
X100520000Y-82250000I150000J0D01*
G01*
X102120000Y-82250000D01*
G75*
G02*
X102270000Y-82400000I0J-150000D01*
G01*
X102270000Y-82700000D01*
G75*
G02*
X102120000Y-82850000I-150000J0D01*
G01*
X100520000Y-82850000D01*
G75*
G02*
X100370000Y-82700000I0J150000D01*
G01*
G37*
G04 #@! TD.AperFunction*
G04 #@! TA.AperFunction,SMDPad,CuDef*
G36*
G01*
X100370000Y-81430000D02*
X100370000Y-81130000D01*
G75*
G02*
X100520000Y-80980000I150000J0D01*
G01*
X102120000Y-80980000D01*
G75*
G02*
X102270000Y-81130000I0J-150000D01*
G01*
X102270000Y-81430000D01*
G75*
G02*
X102120000Y-81580000I-150000J0D01*
G01*
X100520000Y-81580000D01*
G75*
G02*
X100370000Y-81430000I0J150000D01*
G01*
G37*
G04 #@! TD.AperFunction*
G04 #@! TA.AperFunction,SMDPad,CuDef*
G36*
G01*
X100370000Y-80160000D02*
X100370000Y-79860000D01*
G75*
G02*
X100520000Y-79710000I150000J0D01*
G01*
X102120000Y-79710000D01*
G75*
G02*
X102270000Y-79860000I0J-150000D01*
G01*
X102270000Y-80160000D01*
G75*
G02*
X102120000Y-80310000I-150000J0D01*
G01*
X100520000Y-80310000D01*
G75*
G02*
X100370000Y-80160000I0J150000D01*
G01*
G37*
G04 #@! TD.AperFunction*
G04 #@! TA.AperFunction,SMDPad,CuDef*
G36*
G01*
X100370000Y-78890000D02*
X100370000Y-78590000D01*
G75*
G02*
X100520000Y-78440000I150000J0D01*
G01*
X102120000Y-78440000D01*
G75*
G02*
X102270000Y-78590000I0J-150000D01*
G01*
X102270000Y-78890000D01*
G75*
G02*
X102120000Y-79040000I-150000J0D01*
G01*
X100520000Y-79040000D01*
G75*
G02*
X100370000Y-78890000I0J150000D01*
G01*
G37*
G04 #@! TD.AperFunction*
G04 #@! TA.AperFunction,SMDPad,CuDef*
G36*
G01*
X100370000Y-77620000D02*
X100370000Y-77320000D01*
G75*
G02*
X100520000Y-77170000I150000J0D01*
G01*
X102120000Y-77170000D01*
G75*
G02*
X102270000Y-77320000I0J-150000D01*
G01*
X102270000Y-77620000D01*
G75*
G02*
X102120000Y-77770000I-150000J0D01*
G01*
X100520000Y-77770000D01*
G75*
G02*
X100370000Y-77620000I0J150000D01*
G01*
G37*
G04 #@! TD.AperFunction*
G04 #@! TA.AperFunction,SMDPad,CuDef*
G36*
G01*
X100370000Y-76350000D02*
X100370000Y-76050000D01*
G75*
G02*
X100520000Y-75900000I150000J0D01*
G01*
X102120000Y-75900000D01*
G75*
G02*
X102270000Y-76050000I0J-150000D01*
G01*
X102270000Y-76350000D01*
G75*
G02*
X102120000Y-76500000I-150000J0D01*
G01*
X100520000Y-76500000D01*
G75*
G02*
X100370000Y-76350000I0J150000D01*
G01*
G37*
G04 #@! TD.AperFunction*
G04 #@! TA.AperFunction,SMDPad,CuDef*
G36*
G01*
X100370000Y-75080000D02*
X100370000Y-74780000D01*
G75*
G02*
X100520000Y-74630000I150000J0D01*
G01*
X102120000Y-74630000D01*
G75*
G02*
X102270000Y-74780000I0J-150000D01*
G01*
X102270000Y-75080000D01*
G75*
G02*
X102120000Y-75230000I-150000J0D01*
G01*
X100520000Y-75230000D01*
G75*
G02*
X100370000Y-75080000I0J150000D01*
G01*
G37*
G04 #@! TD.AperFunction*
G04 #@! TA.AperFunction,SMDPad,CuDef*
G36*
G01*
X100370000Y-73810000D02*
X100370000Y-73510000D01*
G75*
G02*
X100520000Y-73360000I150000J0D01*
G01*
X102120000Y-73360000D01*
G75*
G02*
X102270000Y-73510000I0J-150000D01*
G01*
X102270000Y-73810000D01*
G75*
G02*
X102120000Y-73960000I-150000J0D01*
G01*
X100520000Y-73960000D01*
G75*
G02*
X100370000Y-73810000I0J150000D01*
G01*
G37*
G04 #@! TD.AperFunction*
G04 #@! TA.AperFunction,SMDPad,CuDef*
G36*
G01*
X100370000Y-72540000D02*
X100370000Y-72240000D01*
G75*
G02*
X100520000Y-72090000I150000J0D01*
G01*
X102120000Y-72090000D01*
G75*
G02*
X102270000Y-72240000I0J-150000D01*
G01*
X102270000Y-72540000D01*
G75*
G02*
X102120000Y-72690000I-150000J0D01*
G01*
X100520000Y-72690000D01*
G75*
G02*
X100370000Y-72540000I0J150000D01*
G01*
G37*
G04 #@! TD.AperFunction*
G04 #@! TA.AperFunction,SMDPad,CuDef*
G36*
G01*
X100370000Y-71270000D02*
X100370000Y-70970000D01*
G75*
G02*
X100520000Y-70820000I150000J0D01*
G01*
X102120000Y-70820000D01*
G75*
G02*
X102270000Y-70970000I0J-150000D01*
G01*
X102270000Y-71270000D01*
G75*
G02*
X102120000Y-71420000I-150000J0D01*
G01*
X100520000Y-71420000D01*
G75*
G02*
X100370000Y-71270000I0J150000D01*
G01*
G37*
G04 #@! TD.AperFunction*
G04 #@! TA.AperFunction,SMDPad,CuDef*
G36*
G01*
X100370000Y-70000000D02*
X100370000Y-69700000D01*
G75*
G02*
X100520000Y-69550000I150000J0D01*
G01*
X102120000Y-69550000D01*
G75*
G02*
X102270000Y-69700000I0J-150000D01*
G01*
X102270000Y-70000000D01*
G75*
G02*
X102120000Y-70150000I-150000J0D01*
G01*
X100520000Y-70150000D01*
G75*
G02*
X100370000Y-70000000I0J150000D01*
G01*
G37*
G04 #@! TD.AperFunction*
D10*
X104140000Y-104140000D03*
X104140000Y-101600000D03*
X104140000Y-99060000D03*
X104140000Y-96520000D03*
X104140000Y-93980000D03*
X104140000Y-91440000D03*
X104140000Y-88900000D03*
X104140000Y-86360000D03*
X104140000Y-83820000D03*
X104140000Y-81280000D03*
X104140000Y-78740000D03*
X104140000Y-76200000D03*
X104140000Y-73660000D03*
X104140000Y-71120000D03*
X104140000Y-68580000D03*
D12*
X104140000Y-66040000D03*
D10*
X88900000Y-104140000D03*
X88900000Y-101600000D03*
X88900000Y-99060000D03*
X88900000Y-96520000D03*
X88900000Y-93980000D03*
X88900000Y-91440000D03*
X88900000Y-88900000D03*
X88900000Y-86360000D03*
X88900000Y-83820000D03*
X88900000Y-81280000D03*
X88900000Y-78740000D03*
X88900000Y-76200000D03*
X88900000Y-73660000D03*
X88900000Y-71120000D03*
X88900000Y-68580000D03*
D11*
X88900000Y-66040000D03*
D13*
X93218000Y-81534000D03*
X99822000Y-79756000D03*
X93218000Y-79756000D03*
X99822000Y-81534000D03*
D14*
X93345000Y-71120000D03*
X96520000Y-85090000D03*
X99695000Y-76200000D03*
X99695000Y-85090000D03*
X93345000Y-85090000D03*
D15*
X92964000Y-81280000D02*
X93218000Y-81534000D01*
X91820000Y-81280000D02*
X92964000Y-81280000D01*
X100076000Y-80010000D02*
X101220000Y-80010000D01*
X99822000Y-79756000D02*
X100076000Y-80010000D01*
X92964000Y-80010000D02*
X93218000Y-79756000D01*
X91820000Y-80010000D02*
X92964000Y-80010000D01*
X100076000Y-81280000D02*
X101220000Y-81280000D01*
X99822000Y-81534000D02*
X100076000Y-81280000D01*
D16*
X95250000Y-91440000D02*
X95250000Y-80645000D01*
X90805000Y-95885000D02*
X95250000Y-91440000D01*
X88900000Y-101600000D02*
X90805000Y-99695000D01*
X93345000Y-78740000D02*
X91820000Y-78740000D01*
X95250000Y-80645000D02*
X93345000Y-78740000D01*
X90805000Y-99695000D02*
X90805000Y-95885000D01*
X94615000Y-83820000D02*
X93345000Y-82550000D01*
X93345000Y-82550000D02*
X91820000Y-82550000D01*
X94615000Y-91186000D02*
X94615000Y-83820000D01*
X90170000Y-95631000D02*
X94615000Y-91186000D01*
X88900000Y-99060000D02*
X90170000Y-97790000D01*
X90170000Y-97790000D02*
X90170000Y-95631000D01*
X93345000Y-83820000D02*
X91820000Y-83820000D01*
X93980000Y-84455000D02*
X93345000Y-83820000D01*
X88900000Y-96520000D02*
X88900000Y-96012000D01*
X93980000Y-90932000D02*
X93980000Y-84455000D01*
X88900000Y-96012000D02*
X93980000Y-90932000D01*
X91820000Y-91440000D02*
X90805000Y-91440000D01*
X90805000Y-91440000D02*
X90170000Y-92075000D01*
X90170000Y-92075000D02*
X90170000Y-92710000D01*
X90170000Y-92710000D02*
X88900000Y-93980000D01*
X90170000Y-90170000D02*
X91820000Y-90170000D01*
X88900000Y-91440000D02*
X90170000Y-90170000D01*
X88900000Y-88900000D02*
X91820000Y-88900000D01*
X88900000Y-86360000D02*
X90170000Y-87630000D01*
X90170000Y-87630000D02*
X91820000Y-87630000D01*
X91820000Y-86360000D02*
X90805000Y-86360000D01*
X90805000Y-86360000D02*
X90170000Y-85725000D01*
X90170000Y-85725000D02*
X90170000Y-85090000D01*
X90170000Y-85090000D02*
X88900000Y-83820000D01*
X91820000Y-71120000D02*
X93345000Y-71120000D01*
X90170000Y-77470000D02*
X88900000Y-78740000D01*
X90170000Y-75565000D02*
X90170000Y-77470000D01*
X91820000Y-74930000D02*
X90805000Y-74930000D01*
X90805000Y-74930000D02*
X90170000Y-75565000D01*
X90805000Y-73660000D02*
X91820000Y-73660000D01*
X88900000Y-76200000D02*
X88900000Y-75565000D01*
X88900000Y-75565000D02*
X90805000Y-73660000D01*
X90170000Y-72390000D02*
X91820000Y-72390000D01*
X88900000Y-73660000D02*
X90170000Y-72390000D01*
X90170000Y-69850000D02*
X88900000Y-71120000D01*
X91820000Y-69850000D02*
X90170000Y-69850000D01*
X88900000Y-68580000D02*
X92710000Y-68580000D01*
X99060000Y-74930000D02*
X101220000Y-74930000D01*
X92710000Y-68580000D02*
X99060000Y-74930000D01*
X101220000Y-73660000D02*
X99060000Y-73660000D01*
X91440000Y-66040000D02*
X88900000Y-66040000D01*
X99060000Y-73660000D02*
X91440000Y-66040000D01*
X93345000Y-77470000D02*
X91820000Y-77470000D01*
X95885000Y-80010000D02*
X93345000Y-77470000D01*
X101346000Y-97028000D02*
X95885000Y-91567000D01*
X104140000Y-104140000D02*
X101346000Y-101346000D01*
X95885000Y-91567000D02*
X95885000Y-80010000D01*
X101346000Y-101346000D02*
X101346000Y-97028000D01*
X99695000Y-77470000D02*
X101220000Y-77470000D01*
X97155000Y-80010000D02*
X99695000Y-77470000D01*
X97155000Y-91821000D02*
X97155000Y-80010000D01*
X101854000Y-96520000D02*
X97155000Y-91821000D01*
X104140000Y-101600000D02*
X101854000Y-99314000D01*
X101854000Y-99314000D02*
X101854000Y-96520000D01*
X102362000Y-97282000D02*
X104140000Y-99060000D01*
X97790000Y-91440000D02*
X102362000Y-96012000D01*
X97790000Y-80645000D02*
X97790000Y-91440000D01*
X102362000Y-96012000D02*
X102362000Y-97282000D01*
X101220000Y-78740000D02*
X99695000Y-78740000D01*
X99695000Y-78740000D02*
X97790000Y-80645000D01*
X98425000Y-91186000D02*
X103759000Y-96520000D01*
X98425000Y-83820000D02*
X98425000Y-91186000D01*
X103759000Y-96520000D02*
X104140000Y-96520000D01*
X101220000Y-82550000D02*
X99695000Y-82550000D01*
X99695000Y-82550000D02*
X98425000Y-83820000D01*
X99790250Y-83820000D02*
X101220000Y-83820000D01*
X99060000Y-90932000D02*
X99060000Y-84550250D01*
X100330000Y-92202000D02*
X99060000Y-90932000D01*
X99060000Y-84550250D02*
X99790250Y-83820000D01*
X104140000Y-93980000D02*
X102362000Y-92202000D01*
X102362000Y-92202000D02*
X100330000Y-92202000D01*
X96520000Y-85090000D02*
X96520000Y-79375000D01*
X96520000Y-79375000D02*
X93345000Y-76200000D01*
X93345000Y-76200000D02*
X91820000Y-76200000D01*
X101220000Y-88900000D02*
X104140000Y-88900000D01*
X101220000Y-76200000D02*
X99695000Y-76200000D01*
X103378000Y-84582000D02*
X104140000Y-83820000D01*
X103378000Y-85471000D02*
X103378000Y-84582000D01*
X102870000Y-85979000D02*
X103378000Y-85471000D01*
X102870000Y-87122000D02*
X102870000Y-85979000D01*
X101220000Y-87630000D02*
X102362000Y-87630000D01*
X102362000Y-87630000D02*
X102870000Y-87122000D01*
X99695000Y-89789000D02*
X99695000Y-85090000D01*
X101220000Y-90170000D02*
X100076000Y-90170000D01*
X100076000Y-90170000D02*
X99695000Y-89789000D01*
X102997000Y-79883000D02*
X104140000Y-78740000D01*
X102997000Y-85026500D02*
X102997000Y-79883000D01*
X102362000Y-86106000D02*
X102362000Y-85661500D01*
X101220000Y-86360000D02*
X102108000Y-86360000D01*
X102362000Y-85661500D02*
X102997000Y-85026500D01*
X102108000Y-86360000D02*
X102362000Y-86106000D01*
X102616000Y-77724000D02*
X104140000Y-76200000D01*
X102616000Y-84645500D02*
X102616000Y-77724000D01*
X101600000Y-85090000D02*
X102171500Y-85090000D01*
X102171500Y-85090000D02*
X102616000Y-84645500D01*
X91820000Y-85090000D02*
X93345000Y-85090000D01*
X102870000Y-72390000D02*
X104140000Y-71120000D01*
X101220000Y-72390000D02*
X102870000Y-72390000D01*
X102235000Y-71120000D02*
X102870000Y-70485000D01*
X101220000Y-71120000D02*
X102235000Y-71120000D01*
X102870000Y-70485000D02*
X102870000Y-69850000D01*
X102870000Y-69850000D02*
X104140000Y-68580000D01*
M02*
