G04 #@! TF.GenerationSoftware,KiCad,Pcbnew,5.1.7-a382d34a8~87~ubuntu18.04.1*
G04 #@! TF.CreationDate,2020-10-26T15:35:19+00:00*
G04 #@! TF.ProjectId,ram_adapter_4l,72616d5f-6164-4617-9074-65725f346c2e,rev?*
G04 #@! TF.SameCoordinates,Original*
G04 #@! TF.FileFunction,Copper,L4,Bot*
G04 #@! TF.FilePolarity,Positive*
%FSLAX46Y46*%
G04 Gerber Fmt 4.6, Leading zero omitted, Abs format (unit mm)*
G04 Created by KiCad (PCBNEW 5.1.7-a382d34a8~87~ubuntu18.04.1) date 2020-10-26 15:35:19*
%MOMM*%
%LPD*%
G01*
G04 APERTURE LIST*
G04 #@! TA.AperFunction,ComponentPad*
%ADD10O,1.700000X1.700000*%
G04 #@! TD*
G04 #@! TA.AperFunction,ComponentPad*
%ADD11R,1.700000X1.700000*%
G04 #@! TD*
G04 #@! TA.AperFunction,ComponentPad*
%ADD12C,1.700000*%
G04 #@! TD*
G04 #@! TA.AperFunction,ViaPad*
%ADD13C,0.762000*%
G04 #@! TD*
G04 #@! TA.AperFunction,ViaPad*
%ADD14C,0.660400*%
G04 #@! TD*
G04 #@! TA.AperFunction,Conductor*
%ADD15C,0.406400*%
G04 #@! TD*
G04 #@! TA.AperFunction,Conductor*
%ADD16C,0.203200*%
G04 #@! TD*
G04 APERTURE END LIST*
D10*
X97790000Y-95885000D03*
D11*
X95250000Y-95885000D03*
D10*
X104140000Y-104140000D03*
X104140000Y-101600000D03*
X104140000Y-99060000D03*
X104140000Y-96520000D03*
X104140000Y-93980000D03*
X104140000Y-91440000D03*
X104140000Y-88900000D03*
X104140000Y-86360000D03*
X104140000Y-83820000D03*
X104140000Y-81280000D03*
X104140000Y-78740000D03*
X104140000Y-76200000D03*
X104140000Y-73660000D03*
X104140000Y-71120000D03*
X104140000Y-68580000D03*
D12*
X104140000Y-66040000D03*
D10*
X88900000Y-104140000D03*
X88900000Y-101600000D03*
X88900000Y-99060000D03*
X88900000Y-96520000D03*
X88900000Y-93980000D03*
X88900000Y-91440000D03*
X88900000Y-88900000D03*
X88900000Y-86360000D03*
X88900000Y-83820000D03*
X88900000Y-81280000D03*
X88900000Y-78740000D03*
X88900000Y-76200000D03*
X88900000Y-73660000D03*
X88900000Y-71120000D03*
X88900000Y-68580000D03*
D11*
X88900000Y-66040000D03*
G04 #@! TA.AperFunction,SMDPad,CuDef*
G36*
G01*
X98881250Y-80195000D02*
X97968750Y-80195000D01*
G75*
G02*
X97725000Y-79951250I0J243750D01*
G01*
X97725000Y-79463750D01*
G75*
G02*
X97968750Y-79220000I243750J0D01*
G01*
X98881250Y-79220000D01*
G75*
G02*
X99125000Y-79463750I0J-243750D01*
G01*
X99125000Y-79951250D01*
G75*
G02*
X98881250Y-80195000I-243750J0D01*
G01*
G37*
G04 #@! TD.AperFunction*
G04 #@! TA.AperFunction,SMDPad,CuDef*
G36*
G01*
X98881250Y-82070000D02*
X97968750Y-82070000D01*
G75*
G02*
X97725000Y-81826250I0J243750D01*
G01*
X97725000Y-81338750D01*
G75*
G02*
X97968750Y-81095000I243750J0D01*
G01*
X98881250Y-81095000D01*
G75*
G02*
X99125000Y-81338750I0J-243750D01*
G01*
X99125000Y-81826250D01*
G75*
G02*
X98881250Y-82070000I-243750J0D01*
G01*
G37*
G04 #@! TD.AperFunction*
G04 #@! TA.AperFunction,SMDPad,CuDef*
G36*
G01*
X94158750Y-81095000D02*
X95071250Y-81095000D01*
G75*
G02*
X95315000Y-81338750I0J-243750D01*
G01*
X95315000Y-81826250D01*
G75*
G02*
X95071250Y-82070000I-243750J0D01*
G01*
X94158750Y-82070000D01*
G75*
G02*
X93915000Y-81826250I0J243750D01*
G01*
X93915000Y-81338750D01*
G75*
G02*
X94158750Y-81095000I243750J0D01*
G01*
G37*
G04 #@! TD.AperFunction*
G04 #@! TA.AperFunction,SMDPad,CuDef*
G36*
G01*
X94158750Y-79220000D02*
X95071250Y-79220000D01*
G75*
G02*
X95315000Y-79463750I0J-243750D01*
G01*
X95315000Y-79951250D01*
G75*
G02*
X95071250Y-80195000I-243750J0D01*
G01*
X94158750Y-80195000D01*
G75*
G02*
X93915000Y-79951250I0J243750D01*
G01*
X93915000Y-79463750D01*
G75*
G02*
X94158750Y-79220000I243750J0D01*
G01*
G37*
G04 #@! TD.AperFunction*
D13*
X93218000Y-81534000D03*
X99822000Y-79756000D03*
X93218000Y-79756000D03*
X99822000Y-81534000D03*
D14*
X93345000Y-71120000D03*
X96520000Y-85090000D03*
X99695000Y-76200000D03*
X99695000Y-85090000D03*
X93345000Y-85090000D03*
D15*
X93266500Y-81582500D02*
X94615000Y-81582500D01*
X93218000Y-81534000D02*
X93266500Y-81582500D01*
X99773500Y-79707500D02*
X98425000Y-79707500D01*
X99822000Y-79756000D02*
X99773500Y-79707500D01*
X93266500Y-79707500D02*
X94615000Y-79707500D01*
X93218000Y-79756000D02*
X93266500Y-79707500D01*
X99773500Y-81582500D02*
X98425000Y-81582500D01*
X99822000Y-81534000D02*
X99773500Y-81582500D01*
D16*
X93345000Y-76835000D02*
X88900000Y-81280000D01*
X93345000Y-71120000D02*
X93345000Y-76835000D01*
X102870000Y-91440000D02*
X104140000Y-91440000D01*
X96520000Y-85090000D02*
X102870000Y-91440000D01*
X99060000Y-86360000D02*
X104140000Y-86360000D01*
X99695000Y-76200000D02*
X97155000Y-78740000D01*
X97155000Y-78740000D02*
X97155000Y-84455000D01*
X97155000Y-84455000D02*
X99060000Y-86360000D01*
X99695000Y-85090000D02*
X99695000Y-83820000D01*
X102235000Y-81280000D02*
X104140000Y-81280000D01*
X99695000Y-83820000D02*
X102235000Y-81280000D01*
X95885000Y-78105000D02*
X100330000Y-73660000D01*
X100330000Y-73660000D02*
X104140000Y-73660000D01*
X93345000Y-85090000D02*
X95250000Y-85090000D01*
X95885000Y-84455000D02*
X95885000Y-78105000D01*
X95250000Y-85090000D02*
X95885000Y-84455000D01*
M02*
