G04 #@! TF.GenerationSoftware,KiCad,Pcbnew,5.1.7-a382d34a8~87~ubuntu18.04.1*
G04 #@! TF.CreationDate,2020-10-26T15:35:19+00:00*
G04 #@! TF.ProjectId,ram_adapter_4l,72616d5f-6164-4617-9074-65725f346c2e,rev?*
G04 #@! TF.SameCoordinates,Original*
G04 #@! TF.FileFunction,Soldermask,Bot*
G04 #@! TF.FilePolarity,Negative*
%FSLAX46Y46*%
G04 Gerber Fmt 4.6, Leading zero omitted, Abs format (unit mm)*
G04 Created by KiCad (PCBNEW 5.1.7-a382d34a8~87~ubuntu18.04.1) date 2020-10-26 15:35:19*
%MOMM*%
%LPD*%
G01*
G04 APERTURE LIST*
%ADD10O,1.900000X1.900000*%
%ADD11C,1.900000*%
G04 APERTURE END LIST*
D10*
X97790000Y-95885000D03*
G36*
G01*
X96100000Y-96835000D02*
X94400000Y-96835000D01*
G75*
G02*
X94300000Y-96735000I0J100000D01*
G01*
X94300000Y-95035000D01*
G75*
G02*
X94400000Y-94935000I100000J0D01*
G01*
X96100000Y-94935000D01*
G75*
G02*
X96200000Y-95035000I0J-100000D01*
G01*
X96200000Y-96735000D01*
G75*
G02*
X96100000Y-96835000I-100000J0D01*
G01*
G37*
X104140000Y-104140000D03*
X104140000Y-101600000D03*
X104140000Y-99060000D03*
X104140000Y-96520000D03*
X104140000Y-93980000D03*
X104140000Y-91440000D03*
X104140000Y-88900000D03*
X104140000Y-86360000D03*
X104140000Y-83820000D03*
X104140000Y-81280000D03*
X104140000Y-78740000D03*
X104140000Y-76200000D03*
X104140000Y-73660000D03*
X104140000Y-71120000D03*
X104140000Y-68580000D03*
D11*
X104140000Y-66040000D03*
D10*
X88900000Y-104140000D03*
X88900000Y-101600000D03*
X88900000Y-99060000D03*
X88900000Y-96520000D03*
X88900000Y-93980000D03*
X88900000Y-91440000D03*
X88900000Y-88900000D03*
X88900000Y-86360000D03*
X88900000Y-83820000D03*
X88900000Y-81280000D03*
X88900000Y-78740000D03*
X88900000Y-76200000D03*
X88900000Y-73660000D03*
X88900000Y-71120000D03*
X88900000Y-68580000D03*
G36*
G01*
X89850000Y-65190000D02*
X89850000Y-66890000D01*
G75*
G02*
X89750000Y-66990000I-100000J0D01*
G01*
X88050000Y-66990000D01*
G75*
G02*
X87950000Y-66890000I0J100000D01*
G01*
X87950000Y-65190000D01*
G75*
G02*
X88050000Y-65090000I100000J0D01*
G01*
X89750000Y-65090000D01*
G75*
G02*
X89850000Y-65190000I0J-100000D01*
G01*
G37*
G36*
G01*
X98931250Y-80295000D02*
X97918750Y-80295000D01*
G75*
G02*
X97625000Y-80001250I0J293750D01*
G01*
X97625000Y-79413750D01*
G75*
G02*
X97918750Y-79120000I293750J0D01*
G01*
X98931250Y-79120000D01*
G75*
G02*
X99225000Y-79413750I0J-293750D01*
G01*
X99225000Y-80001250D01*
G75*
G02*
X98931250Y-80295000I-293750J0D01*
G01*
G37*
G36*
G01*
X98931250Y-82170000D02*
X97918750Y-82170000D01*
G75*
G02*
X97625000Y-81876250I0J293750D01*
G01*
X97625000Y-81288750D01*
G75*
G02*
X97918750Y-80995000I293750J0D01*
G01*
X98931250Y-80995000D01*
G75*
G02*
X99225000Y-81288750I0J-293750D01*
G01*
X99225000Y-81876250D01*
G75*
G02*
X98931250Y-82170000I-293750J0D01*
G01*
G37*
G36*
G01*
X94108750Y-80995000D02*
X95121250Y-80995000D01*
G75*
G02*
X95415000Y-81288750I0J-293750D01*
G01*
X95415000Y-81876250D01*
G75*
G02*
X95121250Y-82170000I-293750J0D01*
G01*
X94108750Y-82170000D01*
G75*
G02*
X93815000Y-81876250I0J293750D01*
G01*
X93815000Y-81288750D01*
G75*
G02*
X94108750Y-80995000I293750J0D01*
G01*
G37*
G36*
G01*
X94108750Y-79120000D02*
X95121250Y-79120000D01*
G75*
G02*
X95415000Y-79413750I0J-293750D01*
G01*
X95415000Y-80001250D01*
G75*
G02*
X95121250Y-80295000I-293750J0D01*
G01*
X94108750Y-80295000D01*
G75*
G02*
X93815000Y-80001250I0J293750D01*
G01*
X93815000Y-79413750D01*
G75*
G02*
X94108750Y-79120000I293750J0D01*
G01*
G37*
M02*
