G04 #@! TF.GenerationSoftware,KiCad,Pcbnew,5.1.7-a382d34a8~87~ubuntu18.04.1*
G04 #@! TF.CreationDate,2020-10-26T15:35:19+00:00*
G04 #@! TF.ProjectId,ram_adapter_4l,72616d5f-6164-4617-9074-65725f346c2e,rev?*
G04 #@! TF.SameCoordinates,Original*
G04 #@! TF.FileFunction,Legend,Bot*
G04 #@! TF.FilePolarity,Positive*
%FSLAX46Y46*%
G04 Gerber Fmt 4.6, Leading zero omitted, Abs format (unit mm)*
G04 Created by KiCad (PCBNEW 5.1.7-a382d34a8~87~ubuntu18.04.1) date 2020-10-26 15:35:19*
%MOMM*%
%LPD*%
G01*
G04 APERTURE LIST*
%ADD10C,0.120000*%
%ADD11C,0.150000*%
G04 APERTURE END LIST*
D10*
X105470000Y-105470000D02*
X102810000Y-105470000D01*
X105470000Y-67310000D02*
X105470000Y-105470000D01*
X102810000Y-67310000D02*
X102810000Y-105470000D01*
X105470000Y-67310000D02*
X102810000Y-67310000D01*
X105470000Y-66040000D02*
X105470000Y-64710000D01*
X105470000Y-64710000D02*
X104140000Y-64710000D01*
X90230000Y-105470000D02*
X87570000Y-105470000D01*
X90230000Y-67310000D02*
X90230000Y-105470000D01*
X87570000Y-67310000D02*
X87570000Y-105470000D01*
X90230000Y-67310000D02*
X87570000Y-67310000D01*
X90230000Y-66040000D02*
X90230000Y-64710000D01*
X90230000Y-64710000D02*
X88900000Y-64710000D01*
X97715000Y-80903578D02*
X97715000Y-80386422D01*
X99135000Y-80903578D02*
X99135000Y-80386422D01*
X95325000Y-80386422D02*
X95325000Y-80903578D01*
X93905000Y-80386422D02*
X93905000Y-80903578D01*
D11*
X101449142Y-80478333D02*
X101496761Y-80430714D01*
X101544380Y-80287857D01*
X101544380Y-80192619D01*
X101496761Y-80049761D01*
X101401523Y-79954523D01*
X101306285Y-79906904D01*
X101115809Y-79859285D01*
X100972952Y-79859285D01*
X100782476Y-79906904D01*
X100687238Y-79954523D01*
X100592000Y-80049761D01*
X100544380Y-80192619D01*
X100544380Y-80287857D01*
X100592000Y-80430714D01*
X100639619Y-80478333D01*
X100639619Y-80859285D02*
X100592000Y-80906904D01*
X100544380Y-81002142D01*
X100544380Y-81240238D01*
X100592000Y-81335476D01*
X100639619Y-81383095D01*
X100734857Y-81430714D01*
X100830095Y-81430714D01*
X100972952Y-81383095D01*
X101544380Y-80811666D01*
X101544380Y-81430714D01*
X92305142Y-80478333D02*
X92352761Y-80430714D01*
X92400380Y-80287857D01*
X92400380Y-80192619D01*
X92352761Y-80049761D01*
X92257523Y-79954523D01*
X92162285Y-79906904D01*
X91971809Y-79859285D01*
X91828952Y-79859285D01*
X91638476Y-79906904D01*
X91543238Y-79954523D01*
X91448000Y-80049761D01*
X91400380Y-80192619D01*
X91400380Y-80287857D01*
X91448000Y-80430714D01*
X91495619Y-80478333D01*
X92400380Y-81430714D02*
X92400380Y-80859285D01*
X92400380Y-81145000D02*
X91400380Y-81145000D01*
X91543238Y-81049761D01*
X91638476Y-80954523D01*
X91686095Y-80859285D01*
M02*
